<?xml version="1.0" encoding="utf-8"?>
<!-- Generator: Adobe Illustrator 23.0.1, SVG Export Plug-In . SVG Version: 6.00 Build 0)  -->
<svg version="1.1" id="Layer_1" xmlns="http://www.w3.org/2000/svg" xmlns:xlink="http://www.w3.org/1999/xlink" x="0px" y="0px"
	 viewBox="0 0 584.01 433.02" style="enable-background:new 0 0 584.01 433.02;" xml:space="preserve">
<style type="text/css">
	.st0{fill:#FFFFFF;}
	.st1{fill:#A0DDF9;}
	.st2{fill:#F79E33;}
</style>
<g>
	<polygon class="st0" points="272.98,38.61 273.96,34.52 270.85,31.6 262.85,36.08 257.4,34.14 254.29,24.99 250.39,25.39 
		250.78,29.85 249.8,30.83 247.08,26.74 247.85,23.05 246.1,16.44 239.87,11 235.39,11.19 231.89,5.75 228.57,7.89 233.25,12.94 
		233.25,14.89 246.1,34.14 245.52,40.75 243.57,47.55 238.31,51.63 238.51,54.55 246.31,58.24 248.25,61.75 243.76,70.49 
		244.74,72.63 247.85,72.44 249.22,74.19 253.12,72.05 259.15,62.13 262.66,54.16 261.5,52.41 263.24,48.33 266.94,48.13 
		267.33,50.27 270.26,48.72 269.87,44.44 272.2,43.08 	"/>
	<path class="st0" d="M192.53,17.03v31.3l9.74,9.72h16.36l9.74-9.72v-31.3l-9.74-9.73h-16.36L192.53,17.03z M207.53,24.8
		c0-2.53,0.98-4.09,2.92-4.09c1.94,0,2.92,1.56,2.92,4.09v15.75c0,2.52-0.97,4.08-2.92,4.08c-1.95,0-2.92-1.56-2.92-4.08V24.8z"/>
	<polygon class="st0" points="216.3,120.66 219.02,119.88 219.02,117.15 222.14,109.77 224.87,101.41 228.77,98.49 232.86,99.27 
		234.61,98.69 235.2,96.74 232.86,93.82 233.44,92.27 237.34,87.41 237.92,84.1 240.07,82.94 242.79,77.11 242.2,75.55 242.6,73.41 
		242.2,72.63 242.6,70.3 239.67,68.94 235,72.25 234.8,71.86 235.2,69.52 233.83,68.74 232.67,69.14 232.47,68.55 233.05,67.19 
		233.64,66.22 233.05,65.05 227.8,69.14 225.45,77.49 222.14,79.44 220.39,87.41 206.36,101.01 201.69,102.38 195.26,111.52 
		190.97,121.44 193.51,124.74 198.38,123.57 199.54,125.32 202.27,125.32 202.47,127.08 207.34,127.27 212.01,124.74 	"/>
	<path class="st0" d="M283.7,116.18v-31.3l-9.74-9.72H257.6l-9.74,9.72v31.3l9.74,9.72h16.36L283.7,116.18z M268.7,108.41
		c0,2.53-0.97,4.08-2.92,4.08c-1.95,0-2.92-1.55-2.92-4.08V92.66c0-2.53,0.97-4.09,2.92-4.09c1.95,0,2.92,1.56,2.92,4.09V108.41z"/>
	<polygon class="st0" points="199.74,127.82 197.69,128.38 198.31,131.09 195.22,135.3 196.33,135.95 202.96,134.25 204.01,131.51 
		203.18,130.7 	"/>
</g>
<polygon class="st0" points="11.48,125.99 37.94,125.99 37.94,7.3 24.13,7.3 15.18,16.25 0,16.25 0,39.6 11.48,39.6 "/>
<path class="st0" d="M84.64,100.13c0,2.78-1.79,4.65-4.12,4.65h-1.87c-2.33,0-4.12-1.87-4.12-4.65V33.16c0-2.78,1.79-4.65,4.12-4.65
	h1.87c2.33,0,4.12,1.87,4.12,4.65V100.13z M64.79,7.3L48.06,24.04v85.22l16.73,16.73h29.57l16.73-16.73V24.04L94.37,7.3H64.79z"/>
<path class="st0" d="M147.68,33.16c0-2.78,1.79-4.65,4.12-4.65h1.87c2.34,0,4.13,1.87,4.13,4.65v66.97c0,2.78-1.79,4.65-4.13,4.65
	h-1.87c-2.33,0-4.12-1.87-4.12-4.65V33.16z M167.52,125.99l16.73-16.73V24.04L167.52,7.3h-29.57l-16.73,16.73v85.22l16.73,16.73
	H167.52z"/>
<path class="st0" d="M350.03,58.45c0,2.78-1.79,4.3-4.12,4.3h-5.41V28.51h5.41c2.34,0,4.12,1.52,4.12,4.3V58.45z M314.04,7.3v118.69
	h26.46V83.96h19.42l16.54-16.54V23.84L359.92,7.3H314.04z"/>
<path class="st0" d="M384.75,7.3v101.95l16.73,16.73h29.57l16.73-16.73V7.3h-26.46v92.83c0,2.78-1.79,4.65-4.12,4.65h-1.87
	c-2.34,0-4.12-1.87-4.12-4.65V7.3H384.75z"/>
<path class="st0" d="M493.9,53.59c0,2.78-1.79,4.3-4.12,4.3h-5.41V28.51h5.41c2.34,0,4.12,1.52,4.12,4.3V53.59z M520.32,23.84
	L503.78,7.3h-45.88v118.69h26.46V80.46h5.37c2.34,0,4.12,1.52,4.12,4.3v29.75l1.4,11.48h26.46l-1.4-13.03V80.46l-11.68-11.68
	l11.68-11.67V23.84z"/>
<polygon class="st0" points="530.36,125.99 580.29,125.99 580.29,103.23 556.83,103.23 556.83,77.35 578.34,77.35 578.34,54.58 
	556.83,54.58 556.83,30.07 580.29,30.07 580.29,7.3 530.36,7.3 "/>
<polygon class="st0" points="40.96,182.29 40.03,182.29 31.21,144.06 11.48,144.06 11.48,238.47 31.06,238.47 31.06,197.76 
	31.99,197.76 42.67,238.47 60.69,238.47 60.69,144.06 40.96,144.06 "/>
<polygon class="st0" points="68.74,238.47 108.46,238.47 108.46,220.36 89.79,220.36 89.79,199.78 106.91,199.78 106.91,181.67 
	89.79,181.67 89.79,162.17 108.46,162.17 108.46,144.06 68.74,144.06 "/>
<polygon class="st0" points="211.5,162.17 231.43,162.17 211.65,221.91 211.65,238.47 254.49,238.47 254.49,220.36 235.02,220.36 
	254.49,161.08 254.49,144.06 211.5,144.06 "/>
<polygon class="st0" points="261.13,238.47 300.85,238.47 300.85,220.36 282.18,220.36 282.18,199.78 299.3,199.78 299.3,181.67 
	282.18,181.67 282.18,162.17 300.85,162.17 300.85,144.06 261.13,144.06 "/>
<polygon class="st0" points="368.02,144.06 368.02,238.47 405.62,238.47 405.62,220.36 388.76,220.36 388.76,144.06 "/>
<polygon class="st0" points="502.49,182.29 501.57,182.29 492.74,144.06 473.01,144.06 473.01,238.47 492.59,238.47 492.59,197.76 
	493.52,197.76 504.2,238.47 522.22,238.47 522.22,144.06 502.49,144.06 "/>
<path class="st0" d="M551.47,160.93h4.49c1.86,0,3.28,1.21,3.28,3.42v53.82c0,2.22-1.42,3.42-3.28,3.42h-4.49V160.93z
	 M530.43,238.47h36.55l13.31-13.31v-67.79l-13.31-13.31h-36.55V238.47z"/>
<polygon class="st0" points="164.68,187.66 163.75,187.66 159.3,144.06 144.1,144.06 139.6,187.66 138.67,187.66 133.84,144.06 
	114.02,144.06 126.01,238.47 145.08,238.47 150.55,197.62 151.48,197.62 156.75,238.47 175.92,238.47 187.87,144.06 169.4,144.06 
	"/>
<path class="st0" d="M329.77,206.29l3.7-30.81h0.93l3.77,30.81H329.77z M320.77,144.06l-15.01,94.41h20.15l1.83-15.22h12.5
	l1.86,15.22h20.92l-15.01-94.41H320.77z"/>
<path class="st0" d="M434.45,206.29l3.69-30.81h0.93l3.77,30.81H434.45z M425.45,144.06l-15.01,94.41h20.15l1.82-15.22h12.5
	l1.86,15.22h20.92l-15.01-94.41H425.45z"/>
<g>
	<path class="st1" d="M26.74,311.02c0,1.59,1.03,3,2.44,3h0.94c1.31,0,2.34-1.41,2.34-3v-54.02h15.47v59.64l-9.75,9.75h-16.6
		l-9.85-9.75v-22.98h15V311.02z"/>
	<path class="st1" d="M53.19,295.17l6.19-3.56l-6.19-3.56v-6.47l6.19-3.56l-6.19-3.56v-7.69l9.75-9.75h17.07l9.75,9.75v49.89
		l-9.75,9.75H62.94l-9.75-9.75v-7.88l6.19-3.56l-6.19-3.56V295.17z M74.29,311.02v-38.64c0-1.59-1.03-3-2.34-3H71
		c-1.31,0-2.34,1.41-2.34,3v38.64c0,1.59,1.03,3,2.34,3h0.94C73.26,314.02,74.29,312.62,74.29,311.02z"/>
	<path class="st1" d="M131.68,257.01v59.64l-9.85,9.75h-17.07l-9.75-9.75v-59.64h15.47v54.02c0,1.59,1.03,3,2.44,3h0.84
		c1.41,0,2.44-1.41,2.44-3v-54.02H131.68z"/>
	<path class="st1" d="M137.21,284.58l6.19-3.56l-6.19-3.56v-6.47l6.19-3.56l-6.19-3.56v-6.85h26.92l9.75,9.75v18.1l-7.22,7.22
		l7.22,7.13v18.47l1.31,8.72h-15.66l-1.13-7.6V300.9c0-1.59-1.03-2.91-2.44-2.91h-3.28v28.42h-15.47v-28.23l6.19-3.56l-6.19-3.56
		V284.58z M155.97,285.61c1.41,0,2.44-1.41,2.44-3v-10.22c0-1.59-1.03-3-2.44-3h-3.28v16.22H155.97z"/>
	<path class="st1" d="M200.23,285.14h0.84v-28.13h14.54v69.4h-13.22l-7.69-29.92h-0.84v29.92h-14.63v-69.4h14.72L200.23,285.14z"/>
	<path class="st1" d="M221.24,257.01h28.88v13.32h-13.41v14.35H249v13.32h-12.29v15.1h13.41v13.32h-28.88V257.01z"/>
	<path class="st1" d="M265.03,326.4v-16.13l6.75-3.38l-6.85-3.38l-1.97-7.5l5.44-2.72l-7.03-3.47l-1.88-7.41l5.44-2.72l-7.03-3.56
		l-4.97-19.13h15.47l4.6,23.26h0.75l4.31-23.26h14.63l-12.19,46.8v22.6H265.03z"/>
	<path class="st1" d="M336.96,300.71h-11.44v25.7h-15.47v-69.4h26.92l9.75,9.75v24.2L336.96,300.71z M328.8,288.33
		c1.41,0,2.44-1.41,2.44-3v-12.94c0-1.59-1.03-3-2.44-3h-3.28v18.94H328.8z"/>
	<path class="st1" d="M351.31,257.01h15.47v56.08h12.19v13.32h-27.67V257.01z"/>
	<path class="st1" d="M396.6,326.4h-14.91l3.75-30.1l7.03-3.47l-6.19-3.09l0.84-6.94l7.13-3.56l-6.28-3.09l0.94-6.94l7.03-3.56
		l-6.19-3.09l0.66-5.53h22.79l8.72,69.4h-15.38l-1.03-11.16h-7.88L396.6,326.4z M398.67,302.77h5.72l-2.44-26.07h-0.94
		L398.67,302.77z"/>
	<path class="st1" d="M446.68,285.14h0.84v-28.13h14.54v69.4h-13.22l-7.69-29.92h-0.84v29.92h-14.63v-69.4h14.72L446.68,285.14z"/>
	<path class="st1" d="M488.69,285.14h0.84v-28.13h14.54v69.4h-13.22l-7.69-29.92h-0.84v29.92h-14.63v-69.4h14.72L488.69,285.14z"/>
	<path class="st1" d="M509.7,306.52l6.19-3.56l-6.19-3.56v-6.47l6.19-3.56l-6.19-3.56v-28.79h28.88v13.32h-13.41v14.35h12.29v13.32
		h-12.29v15.1h13.41v13.32H509.7v-6.28l6.19-3.56l-6.19-3.56V306.52z"/>
	<path class="st1" d="M564.47,300.9c0-1.59-1.03-2.91-2.44-2.91h-3.28v28.42h-15.47v-69.4h26.92l9.75,9.75v18.1l-7.22,7.22
		l7.22,7.13v18.47l1.31,8.72h-15.66l-1.13-7.6V300.9z M562.03,285.61c1.41,0,2.44-1.41,2.44-3v-10.22c0-1.59-1.03-3-2.44-3h-3.28
		v16.22H562.03z"/>
</g>
<g>
	<path class="st2" d="M55.88,389.18v27.59l-11.71,11.71H24.24l-11.71-11.71v-59.91l11.71-11.71h19.93l11.71,11.71v25.68H37.86
		v-18.92c0-1.91-1.24-3.6-2.82-3.6h-1.13c-1.58,0-2.82,1.69-2.82,3.6v46.4c0,1.91,1.24,3.6,2.82,3.6h1.13c1.58,0,2.82-1.69,2.82-3.6
		v-20.83H55.88z"/>
	<path class="st2" d="M62.07,345.15h18.58v67.34h14.64v15.99H62.07V345.15z"/>
	<path class="st2" d="M100.81,345.15h18.58v83.33h-18.58V345.15z"/>
	<path class="st2" d="M169.16,389.18v27.59l-11.71,11.71h-19.93l-11.71-11.71v-59.91l11.71-11.71h19.93l11.71,11.71v25.68h-18.02
		v-18.92c0-1.91-1.24-3.6-2.82-3.6h-1.13c-1.58,0-2.82,1.69-2.82,3.6v46.4c0,1.91,1.24,3.6,2.82,3.6h1.13c1.58,0,2.82-1.69,2.82-3.6
		v-20.83H169.16z"/>
	<path class="st2" d="M193.93,395.04v33.45h-18.58v-83.33h18.58v32.66h1.35l6.64-32.66h19.03l-8.67,40.31l8.67,43.02H201.7
		l-6.42-33.45H193.93z"/>
	<path class="st2" d="M271.07,361.14v67.34H252.6v-67.34h-11.71v-15.99h41.89v15.99H271.07z"/>
	<path class="st2" d="M330.18,416.77l-11.71,11.71h-20.5l-11.71-11.71v-59.91l11.71-11.71h20.5l11.71,11.71V416.77z M311.6,410.02
		v-46.4c0-1.91-1.24-3.6-2.81-3.6h-1.13c-1.58,0-2.82,1.69-2.82,3.6v46.4c0,1.91,1.24,3.6,2.82,3.6h1.13
		C310.36,413.62,311.6,411.93,311.6,410.02z"/>
	<path class="st2" d="M352.02,356.86l11.71-11.71h19.71l11.71,11.71v18.81h-17.79v-12.05c0-1.91-1.13-3.6-2.81-3.6h-1.13
		c-1.58,0-2.81,1.69-2.81,3.6v8.56l24.55,19.59v25l-11.71,11.71h-19.71l-11.71-11.71v-19.26h17.79v12.5c0,1.91,1.13,3.6,2.82,3.6
		h1.13c1.58,0,2.82-1.69,2.82-3.6v-9.12l-24.55-19.48V356.86z"/>
	<path class="st2" d="M428.82,361.14v67.34h-18.47v-67.34h-11.71v-15.99h41.89v15.99H428.82z"/>
	<path class="st2" d="M466.77,415.08h-9.46l-1.24,13.4h-17.91l10.47-83.33H476l10.47,83.33h-18.47L466.77,415.08z M458.55,400.11
		h6.87l-2.93-31.31h-1.13L458.55,400.11z"/>
	<path class="st2" d="M516.43,397.85c0-1.91-1.24-3.49-2.93-3.49h-3.94v34.12h-18.58v-83.33h32.32l11.71,11.71v21.73l-8.67,8.67
		l8.67,8.56v22.18l1.58,10.47h-18.81l-1.35-9.12V397.85z M513.5,379.5c1.69,0,2.93-1.69,2.93-3.6v-12.27c0-1.91-1.24-3.6-2.93-3.6
		h-3.94v19.48H513.5z"/>
	<path class="st2" d="M568.11,361.14v67.34h-18.47v-67.34h-11.71v-15.99h41.89v15.99H568.11z"/>
</g>
</svg>
