<?xml version="1.0" encoding="utf-8"?>
<!-- Generator: Adobe Illustrator 23.0.1, SVG Export Plug-In . SVG Version: 6.00 Build 0)  -->
<svg version="1.1" id="Layer_1" xmlns="http://www.w3.org/2000/svg" xmlns:xlink="http://www.w3.org/1999/xlink" x="0px" y="0px"
	 viewBox="0 0 154.24 166.58" style="enable-background:new 0 0 154.24 166.58;" xml:space="preserve">
<style type="text/css">
	.st0{fill:#FFFFFF;}
</style>
<path class="st0" d="M21.55,90.34C8.99,100.53,2.75,114.49,0.8,119.98l-0.8,0l0.01-14.59c0-2.02,4.01-6.22,4.01-6.22
	c38.59-43.24,112.54-49.42,130.83-85.36c-0.4-1.3-1.04-2.67-2.85-2.76c-1.65,1.87,0.22,4.01,1.12,4.75l-1.57,2.29
	c-0.24-0.92-1.67-3.1-3.28-2.96c-1.21,1.55,0.09,5.1,1.27,5.54c-0.2,0.29-1.49,1.91-1.84,2.16c-0.23-2.62-2.67-3.65-3.45-3.98
	c-2.62,2.44-0.5,6.15,1.2,6.28c-0.52,0.63-2.23,2.01-2.96,2.68c-0.61-3.34-1.93-4.47-3.79-4.86c-1.52,2.02-1.85,6.55,0.96,7.15
	c-0.97,0.71-2.86,2.09-4.06,2.88c0.27-0.38,0.2-6.12-2.86-6.81c-3.54,2.92-2.75,7.76-1.1,9.23c0.06,0.04-2.44,1.32-3.29,1.87
	c0.11-1.18,0.42-6.46-2.56-8.51c-3.04,1.97-2.72,9.19-1.73,10.76c-1.27,0.72-2.27,1.2-3.03,1.59c1.11-2.23-0.22-8.93-3.31-10.3
	c-2.61,3.09-3.85,10.84-2.13,12.76c-1.21,0.56-2.48,1.06-3.65,1.64c1.91-7.6-0.22-11.62-2.24-13.06c-5.07,4.26-4.32,13.08-3.23,15.4
	c0.04,0.09-3.13,1.27-3.18,1.35c0.41-1.21,2.36-13.14-3.14-15.76c-6.15,5.77-3.75,16.51-2.85,18.23c-1.44,0.54-2.3,0.98-3.79,1.58
	c1.56-10.5,0.63-16.84-2.79-19.04c-4.45,3.76-6.4,13.28-2.23,21.15c0.03-0.01-5.25,2.19-5.25,2.19c1.75-4.85,3.45-15.91-3.54-22.5
	c-6.29,5.05-6.58,23.56-2.85,25.28c-2.04,0.93-4.24,2.08-6.27,3.03c2.49-4.3,2.81-23.97-3.54-26.58c-11.81,9.4-4.44,27.4-3.06,29.8
	c-2.54,1.3-5.11,2.39-6.95,3.6c4.49-25.16-6.31-29.3-6.31-29.3c-12.1,9.91-4.86,33.76-2.81,34.58c-1.69,1.05-6.09,4-6.16,4.01
	c1.6-2.91,0.52-30.36-9.06-30.19c-10.1,12.16-1.97,33.02,0.45,36.44c-0.61,0.53-1.51,1.22-2.29,1.81c-1.33-3.2-2.53-5.28-3.6-8.39
	c-1.43-4.34-2.15-8.27-2.03-8.75c-0.29-1.58-0.29-2.14-0.35-2.84c-0.67-7.15,0.26-14.02,2.78-20.6
	C61.73,14.81,105.96,50.62,139.22,0c1.98,5.79,5.01,16.07-3.81,14.99c-0.26,0.49-0.65,1.41-0.78,1.52c0.45-0.32,4.72-0.77,6.11,0.56
	c-1.67,3.2-6.44,2.3-7.15,1.35l-1.62,2.48c0.02,0,3.96-1.62,7.36,0.92c-4.18,4.1-8.6,0.8-8.6,0.8c-0.76,1-0.91,0.94-1.48,1.75
	c2.8-0.17,5.39,0.4,7.77,2.7c-4.95,3.84-10.58,0.87-10.26,0.05c-0.81,0.9-1.62,1.59-2.59,2.54c3.27-0.88,6.43,0.87,8.59,4.15
	c-7.13,3.96-11.22-1.73-11.35-1.8c-1.35,1.05-1.86,1.51-3.6,2.8c0.08-0.03,7.3-0.71,10.13,4.82c-8.8,2.42-12.6-1.2-13.24-2.7
	c0.03-0.01-1.76,1.31-3.7,2.55c4.43,0.15,9.37,2.48,10.71,6.35c-6.97,1.94-13.44-2.69-14.28-4.17c-0.85,0.5-2.12,1.19-3.19,1.84
	c2.27,0.45,8.1,1.97,10.79,8.4c-12.69,2.41-15.8-4.2-16.68-5.23c-1.3,0.72-2.62,1.16-4.4,2.21c3.46,0.23,10.06,2.5,13.21,9.28
	c-12.49,1.86-17.67-5.48-18.2-6.91c-1.35,0.7-2.73,1.48-4,2.05c2.25,0.42,8.52,0.66,13.11,11.78c-9.49,0.52-19.51-7.84-18.83-9.04
	c-1.16,0.56-2.86,1.37-4.37,2.08c6.4,0.59,12.91,6.82,14.59,13.21c-8.27,2.03-20.13-6.65-20.15-10.5c-0.41,0.17-1.76,0.88-4.06,1.96
	c0.09,0.01,8.72,0.86,15.49,15.21c-8.28,1.49-20.31-7.62-22.17-11.89c-0.6,0.3-2.59,1.47-3.9,2.16
	c2.72-0.94,16.84,10.88,16.72,17.07c-13.04,0.96-25.23-10.97-24.4-12.96c-1.59,0.76-3.12,1.97-4.64,2.75
	c3.64,0.14,17.74,8.97,21.15,19.41c-12.83,4.27-29.42-11.14-28.32-14.83c-0.81,0.46-5.9,4.26-6.69,4.85
	c4.08,0.25,21.76,9.18,27.42,22.83C27,111,21.8,90.04,21.55,90.34 M145.5,131.29h2.35c1.05,0,1.79,0.31,2.35,0.99
	c0.58,0.71,0.68,1.68,0.68,4.23c0,2.49-0.1,3.65-0.68,4.37c-0.56,0.68-1.3,0.99-2.35,0.99h-2.35V131.29z M148.16,144.88
	c1.84,0,3.35-0.55,4.39-1.59c1.72-1.71,1.7-3.88,1.69-6.16c0-0.2-0.01-1.03,0-1.23c0.01-2.21,0.02-4.3-1.69-6.02
	c-1.04-1.04-2.56-1.59-4.39-1.59h-6.01v16.59H148.16 M79.43,141.86H71.8v-3.85h6.5v-3h-6.5v-1.85c0-0.44,0.11-1.11,0.45-1.44
	c0.34-0.34,0.79-0.42,1.21-0.42h5.97v-3.01h-7.73c-1.43,0-2.16,0.44-2.73,1.33c-0.54,0.83-0.52,3.05-0.52,4.16v11.11h10.98V141.86z
	 M27.13,128.28H16.15v11.11c0,1.12-0.02,3.32,0.52,4.16c0.57,0.89,1.3,1.33,2.73,1.33h7.73v-3.01h-5.97c-0.41,0-0.87-0.08-1.2-0.42
	c-0.34-0.34-0.45-1-0.45-1.44v-1.85H26v-3.01h-6.49v-3.85h7.63V128.28z M100.98,131.86c-0.07-3.17-1.13-3.58-2.45-3.58h-1.97
	c-0.03,0-0.07,0.03-0.07,0.07c0,0.02,0.01,0.04,0.02,0.06l0.04,0.01c0.78,0.47,1.1,0.94,1.08,1.99l0,0.01v14.45h10.82v-3.01h-7.46
	L100.98,131.86z M12.73,128.28H9.38v9.9l-6.41-9.9H0v16.59h3.35v-9.93l6.4,9.93h2.97V128.28z M135.35,138.18l-6.4-9.9h-2.98v16.6
	h3.36v-9.93l6.41,9.93h2.98l-0.01-13.12c-0.03-2.37-0.82-3.53-2.38-3.47h-1.93c-0.04,0-0.08,0.03-0.08,0.08
	c0,0.02,0.01,0.05,0.03,0.06l0.04,0.01c0.68,0.35,0.9,0.81,0.96,1.67v5.61V138.18z M118.88,139.12l-1.91-5.69l-1.98,5.69H118.88z
	 M124.26,144.88h-3.51l-0.98-2.91h-5.74l-0.99,2.91h-3.51l6.04-16.6h1.23c0.95-0.01,1.62,0.54,1.98,1.62L124.26,144.88z
	 M90.52,139.12l-1.91-5.69l-1.98,5.69H90.52z M95.9,144.88h-3.51l-0.97-2.91h-5.74l-0.99,2.91h-3.51l6.03-16.6h1.23
	c0.96-0.01,1.62,0.54,1.99,1.62L95.9,144.88z M33.43,130.57c-0.35-1.52-1.29-2.28-2.89-2.29h-2.21c-0.05,0-0.08,0.03-0.08,0.07
	c0,0.02,0.01,0.05,0.03,0.06l0.04,0.01c0.93,0.37,1.35,0.83,1.71,2.21l3.8,14.23h2.78l2.97-9.81l2.98,9.81h2.78l4.45-16.6h-3.5
	l-2.52,10.17l-2.94-10.17h-2.51l-2.94,10.17L33.43,130.57z M64.81,132.63c0.62-1.09,1.05-2.42,1.1-3.44v-0.91H55.26v3.01h6.66
	l-6.96,10.91v2.68h10.96v-3.01h-6.99L64.81,132.63z M74.91,153.19h-2.63l-3.38,7.05l-3.41-7.05h-2.62v13.28h2.68v-7.48l2.44,4.81
	h1.81l2.42-4.8v7.48h2.69V153.19z M15.19,155.49c0.64,0,1.22,0.24,1.6,0.68c0.48,0.53,0.63,1.1,0.63,3.66
	c0,2.54-0.15,3.12-0.63,3.65c-0.38,0.44-0.95,0.69-1.6,0.69c-0.66,0-1.25-0.25-1.62-0.69c-0.48-0.53-0.62-1.07-0.62-3.65
	c0-2.59,0.14-3.13,0.62-3.66C13.95,155.74,14.54,155.49,15.19,155.49 M15.19,166.58c1.44,0,2.6-0.48,3.59-1.46
	c1.34-1.33,1.34-2.95,1.34-5.2v-0.09v-0.09c0-2.25,0-3.87-1.34-5.2c-0.98-0.97-2.15-1.46-3.59-1.46c-1.45,0-2.63,0.48-3.61,1.46
	c-1.32,1.32-1.32,2.9-1.32,5.12v0.18V160c0,2.21,0,3.8,1.32,5.11C12.56,166.1,13.75,166.58,15.19,166.58 M37.61,155.6h2.36
	c1.08,0,1.81,0.68,1.81,1.68c0,1-0.73,1.68-1.81,1.68h-2.36V155.6z M42.09,160.76c1.49-0.57,2.38-1.86,2.38-3.48
	c0-2.41-1.78-4.09-4.32-4.09h-5.22v13.28h2.69v-5.25h1.75l2.57,5.25h3.1L42.09,160.76z M55.95,166.58c2.95,0,4.94-1.63,4.94-4.05
	c0-1.23-0.35-2.18-1.03-2.84c-0.59-0.54-1.38-0.87-2.54-1.03l-1.56-0.22c-0.48-0.06-0.91-0.25-1.19-0.5
	c-0.24-0.23-0.37-0.54-0.37-0.9c0-0.98,0.78-1.61,1.98-1.61c0.85,0,1.83,0.11,2.65,0.89l0.05,0.04l1.71-1.69l-0.04-0.04
	c-1.11-1.07-2.42-1.55-4.29-1.55c-2.82,0-4.64,1.59-4.64,4.05c0,1.13,0.31,1.99,0.96,2.63c0.59,0.58,1.43,0.93,2.57,1.12l1.6,0.22
	c0.58,0.08,0.87,0.2,1.14,0.44c0.25,0.24,0.39,0.61,0.39,1.07c0,1.02-0.79,1.57-2.27,1.57c-1.38,0-2.4-0.37-3.14-1.1l-0.04-0.04
	l-1.74,1.74l0.04,0.04C52.31,166.05,53.76,166.58,55.95,166.58 M6.12,155.6h3.44v-2.42H0v2.42h3.43v10.86h2.68V155.6z M27.22,166.58
	c2.84,0,4.91-1.97,4.91-4.69v-8.71h-2.67v8.62c0,1.46-0.86,2.37-2.24,2.37c-1.37,0-2.22-0.91-2.22-2.37v-8.62h-2.68v8.71
	C22.32,164.61,24.38,166.58,27.22,166.58 M47.05,166.46h2.69v-10.38c-0.05-2.54-0.91-2.89-1.96-2.89h-1.58
	c-0.03,0-0.06,0.03-0.06,0.07c0,0.02,0.01,0.03,0.02,0.04l0.03,0.02c0.62,0.37,0.89,0.75,0.86,1.59v1.76L47.05,166.46z"/>
</svg>
