<?xml version="1.0" encoding="utf-8"?>
<!-- Generator: Adobe Illustrator 23.0.1, SVG Export Plug-In . SVG Version: 6.00 Build 0)  -->
<svg version="1.1" id="Layer_1" xmlns="http://www.w3.org/2000/svg" xmlns:xlink="http://www.w3.org/1999/xlink" x="0px" y="0px"
	 viewBox="0 0 154.24 130.9" style="enable-background:new 0 0 154.24 130.9;" xml:space="preserve">
<style type="text/css">
	.st0{fill:#FFFFFF;}
</style>
<path class="st0" d="M23.51,98.57c0.27-0.33,5.94,22.54,37.48,18.62c-6.18-14.9-25.46-24.64-29.92-24.91
	c0.85-0.65,6.41-4.8,7.29-5.3c-1.2,4.02,16.9,20.84,30.9,16.18c-3.73-11.39-19.11-21.02-23.08-21.17c1.66-0.86,3.33-2.17,5.06-3
	c-0.91,2.18,12.39,15.19,26.62,14.14c0.14-6.75-15.27-19.65-18.24-18.63c1.42-0.75,3.59-2.03,4.25-2.36
	c2.03,4.66,15.15,14.59,24.18,12.97c-7.39-15.66-16.81-16.59-16.9-16.6c2.51-1.18,3.99-1.95,4.43-2.14
	c0.02,4.2,12.97,13.68,21.99,11.46c-1.83-6.97-8.93-13.76-15.92-14.41c1.66-0.78,3.51-1.66,4.77-2.27
	c-0.73,1.32,10.19,10.44,20.55,9.87c-5.01-12.13-11.85-12.39-14.31-12.85c1.39-0.62,2.89-1.47,4.36-2.23
	c0.59,1.55,6.23,9.56,19.86,7.53c-3.43-7.39-10.64-9.86-14.41-10.12c1.94-1.15,3.39-1.63,4.8-2.42c0.96,1.12,4.35,8.34,18.2,5.71
	c-2.93-7.01-9.29-8.68-11.77-9.16c1.17-0.72,2.56-1.47,3.48-2.01c0.92,1.6,7.98,6.66,15.58,4.54c-1.47-4.23-6.86-6.76-11.69-6.93
	c2.11-1.35,4.07-2.79,4.03-2.78c0.7,1.64,4.84,5.59,14.44,2.94c-3.09-6.04-10.97-5.29-11.05-5.26c1.9-1.41,2.45-1.9,3.93-3.05
	c0.15,0.08,4.61,6.29,12.39,1.97c-2.36-3.58-5.81-5.49-9.38-4.53c1.06-1.04,1.94-1.79,2.83-2.77c-0.35,0.89,5.79,4.13,11.19-0.06
	c-2.6-2.51-5.42-3.12-8.48-2.94c0.62-0.89,0.79-0.82,1.62-1.91c0,0,4.82,3.61,9.38-0.87c-3.71-2.77-8.01-1-8.03-1l1.77-2.71
	c0.77,1.03,5.98,2.02,7.8-1.47c-1.51-1.45-6.18-0.96-6.66-0.61c0.15-0.13,0.57-1.13,0.86-1.66c9.63,1.18,6.32-10.04,4.16-16.36
	C115.6,55.23,67.35,16.15,8.35,50.88C5.6,58.06,4.59,65.55,5.31,73.35c0.08,0.77,0.08,1.37,0.39,3.1C5.58,76.99,6.35,81.27,7.92,86
	c1.17,3.39,2.48,5.67,3.93,9.15c0.85-0.65,1.84-1.39,2.5-1.97c-2.64-3.74-11.51-26.49-0.49-39.76c10.45-0.18,11.63,29.77,9.88,32.94
	c0.08-0.01,4.87-3.23,6.72-4.37c-2.24-0.89-10.14-26.91,3.06-37.72c0,0,11.78,4.52,6.88,31.96c2.01-1.31,4.82-2.51,7.58-3.92
	c-1.5-2.62-9.55-22.26,3.34-32.52c6.93,2.85,6.58,24.31,3.86,29c2.21-1.04,4.61-2.29,6.84-3.3c-4.07-1.88-3.76-22.08,3.11-27.58
	c7.63,7.19,5.77,19.26,3.87,24.55c0,0,5.77-2.4,5.73-2.39C70.19,51.49,72.31,41.1,77.16,37c3.73,2.4,4.75,9.31,3.05,20.77
	c1.63-0.65,2.56-1.13,4.14-1.72c-0.98-1.88-3.61-13.59,3.11-19.89c6,2.86,3.87,15.88,3.43,17.2c0.06-0.09,3.52-1.37,3.47-1.47
	c-1.19-2.53-2.01-12.16,3.52-16.8c2.2,1.58,4.53,5.96,2.44,14.25c1.28-0.62,2.66-1.18,3.98-1.78c-1.88-2.1-0.53-10.55,2.32-13.92
	c3.37,1.5,4.83,8.8,3.61,11.23c0.84-0.43,1.92-0.96,3.31-1.74c-1.08-1.71-1.43-9.59,1.88-11.74c3.25,2.24,2.91,8,2.79,9.29
	c0.93-0.6,3.65-1.99,3.59-2.04c-1.81-1.61-2.66-6.89,1.2-10.07c3.34,0.74,3.41,7.02,3.12,7.43c1.31-0.86,3.37-2.36,4.43-3.14
	c-3.06-0.66-2.7-5.61-1.04-7.81c2.03,0.42,3.47,1.66,4.14,5.3c0.79-0.72,2.65-2.24,3.22-2.92c-1.85-0.14-4.17-4.19-1.31-6.85
	c0.86,0.36,3.52,1.48,3.77,4.34c0.38-0.27,1.79-2.03,2.01-2.35c-1.29-0.47-2.71-4.35-1.39-6.04c1.76-0.16,3.32,2.22,3.58,3.23
	l1.71-2.5c-0.99-0.81-3.03-3.14-1.22-5.18c1.97,0.1,2.68,1.59,3.11,3.01C127.18,54.28,46.5,61.02,4.39,108.2
	c0,0-4.37,4.58-4.37,6.78L0,130.9l0.87,0C3,124.91,9.81,109.68,23.51,98.57"/>
</svg>
