<?xml version="1.0" encoding="utf-8"?>
<!-- Generator: Adobe Illustrator 23.0.1, SVG Export Plug-In . SVG Version: 6.00 Build 0)  -->
<svg version="1.1" id="Layer_1" xmlns="http://www.w3.org/2000/svg" xmlns:xlink="http://www.w3.org/1999/xlink" x="0px" y="0px"
	 viewBox="0 0 593.36 332.45" style="enable-background:new 0 0 593.36 332.45;" xml:space="preserve">
<style type="text/css">
	.st0{fill:#FFFFFF;}
	.st1{fill:#A0DDF9;}
</style>
<polygon class="st0" points="278.25,38.61 279.24,34.52 276.12,31.6 268.12,36.08 262.68,34.14 259.56,24.99 255.66,25.39 
	256.05,29.85 255.07,30.83 252.35,26.74 253.12,23.05 251.37,16.44 245.14,11 240.66,11.19 237.16,5.75 233.84,7.89 238.52,12.94 
	238.52,14.89 251.37,34.14 250.79,40.75 248.84,47.55 243.58,51.63 243.78,54.55 251.58,58.24 253.52,61.75 249.03,70.49 
	250.01,72.63 253.12,72.44 254.49,74.19 258.39,72.05 264.42,62.13 267.94,54.16 266.77,52.41 268.51,48.33 272.21,48.13 
	272.6,50.27 275.53,48.72 275.15,44.44 277.47,43.08 "/>
<path class="st0" d="M197.8,17.03v31.3l9.74,9.72h16.36l9.74-9.72v-31.3l-9.74-9.73h-16.36L197.8,17.03z M212.8,24.8
	c0-2.53,0.98-4.09,2.92-4.09c1.94,0,2.92,1.56,2.92,4.09v15.75c0,2.52-0.97,4.08-2.92,4.08c-1.95,0-2.92-1.56-2.92-4.08V24.8z"/>
<polygon class="st0" points="221.57,120.66 224.29,119.88 224.29,117.15 227.41,109.77 230.14,101.41 234.04,98.49 238.13,99.27 
	239.88,98.69 240.47,96.74 238.13,93.82 238.71,92.27 242.61,87.41 243.19,84.1 245.34,82.94 248.06,77.11 247.47,75.55 
	247.87,73.41 247.47,72.63 247.87,70.3 244.94,68.94 240.27,72.25 240.07,71.86 240.47,69.52 239.1,68.74 237.94,69.14 
	237.74,68.55 238.32,67.19 238.91,66.22 238.32,65.05 233.07,69.14 230.72,77.49 227.41,79.44 225.66,87.41 211.63,101.01 
	206.96,102.38 200.53,111.52 196.25,121.44 198.78,124.74 203.65,123.57 204.81,125.32 207.54,125.32 207.74,127.08 212.61,127.27 
	217.28,124.74 "/>
<path class="st0" d="M288.97,116.18v-31.3l-9.74-9.72h-16.36l-9.74,9.72v31.3l9.74,9.72h16.36L288.97,116.18z M273.97,108.41
	c0,2.53-0.97,4.08-2.92,4.08c-1.95,0-2.92-1.55-2.92-4.08V92.66c0-2.53,0.97-4.09,2.92-4.09c1.95,0,2.92,1.56,2.92,4.09V108.41z"/>
<polygon class="st0" points="205.01,127.82 202.96,128.38 203.58,131.09 200.49,135.3 201.61,135.95 208.23,134.25 209.28,131.51 
	208.45,130.7 "/>
<polygon class="st0" points="16.75,125.99 43.21,125.99 43.21,7.3 29.4,7.3 20.45,16.25 5.27,16.25 5.27,39.6 16.75,39.6 "/>
<path class="st0" d="M89.91,100.13c0,2.78-1.79,4.65-4.12,4.65h-1.87c-2.33,0-4.12-1.87-4.12-4.65V33.16c0-2.78,1.79-4.65,4.12-4.65
	h1.87c2.33,0,4.12,1.87,4.12,4.65V100.13z M70.06,7.3L53.33,24.04v85.22l16.73,16.73h29.57l16.73-16.73V24.04L99.64,7.3H70.06z"/>
<path class="st0" d="M152.95,33.16c0-2.78,1.79-4.65,4.12-4.65h1.87c2.34,0,4.13,1.87,4.13,4.65v66.97c0,2.78-1.79,4.65-4.13,4.65
	h-1.87c-2.33,0-4.12-1.87-4.12-4.65V33.16z M172.8,125.99l16.73-16.73V24.04L172.8,7.3h-29.57l-16.73,16.73v85.22l16.73,16.73H172.8
	z"/>
<path class="st0" d="M355.3,58.45c0,2.78-1.79,4.3-4.12,4.3h-5.41V28.51h5.41c2.34,0,4.12,1.52,4.12,4.3V58.45z M319.31,7.3v118.69
	h26.46V83.96h19.42l16.54-16.54V23.84L365.19,7.3H319.31z"/>
<path class="st0" d="M390.02,7.3v101.95l16.73,16.73h29.57l16.73-16.73V7.3H426.6v92.83c0,2.78-1.79,4.65-4.12,4.65h-1.87
	c-2.34,0-4.12-1.87-4.12-4.65V7.3H390.02z"/>
<path class="st0" d="M499.17,53.59c0,2.78-1.79,4.3-4.12,4.3h-5.41V28.51h5.41c2.34,0,4.12,1.52,4.12,4.3V53.59z M525.59,23.84
	L509.05,7.3h-45.88v118.69h26.46V80.46h5.37c2.34,0,4.12,1.52,4.12,4.3v29.75l1.4,11.48h26.46l-1.4-13.03V80.46l-11.68-11.68
	l11.68-11.67V23.84z"/>
<polygon class="st0" points="535.64,125.99 585.56,125.99 585.56,103.23 562.1,103.23 562.1,77.35 583.62,77.35 583.62,54.58 
	562.1,54.58 562.1,30.07 585.56,30.07 585.56,7.3 535.64,7.3 "/>
<polygon class="st0" points="46.23,182.29 45.3,182.29 36.48,144.06 16.75,144.06 16.75,238.47 36.33,238.47 36.33,197.76 
	37.26,197.76 47.94,238.47 65.96,238.47 65.96,144.06 46.23,144.06 "/>
<polygon class="st0" points="74.01,238.47 113.73,238.47 113.73,220.36 95.06,220.36 95.06,199.78 112.18,199.78 112.18,181.67 
	95.06,181.67 95.06,162.17 113.73,162.17 113.73,144.06 74.01,144.06 "/>
<polygon class="st0" points="216.77,162.17 236.7,162.17 216.92,221.91 216.92,238.47 259.76,238.47 259.76,220.36 240.29,220.36 
	259.76,161.08 259.76,144.06 216.77,144.06 "/>
<polygon class="st0" points="266.4,238.47 306.12,238.47 306.12,220.36 287.45,220.36 287.45,199.78 304.57,199.78 304.57,181.67 
	287.45,181.67 287.45,162.17 306.12,162.17 306.12,144.06 266.4,144.06 "/>
<polygon class="st0" points="373.29,144.06 373.29,238.47 410.9,238.47 410.9,220.36 394.03,220.36 394.03,144.06 "/>
<polygon class="st0" points="507.76,182.29 506.84,182.29 498.01,144.06 478.28,144.06 478.28,238.47 497.86,238.47 497.86,197.76 
	498.79,197.76 509.47,238.47 527.49,238.47 527.49,144.06 507.76,144.06 "/>
<path class="st0" d="M556.75,160.93h4.49c1.86,0,3.28,1.21,3.28,3.42v53.82c0,2.22-1.42,3.42-3.28,3.42h-4.49V160.93z M535.7,238.47
	h36.55l13.31-13.31v-67.79l-13.31-13.31H535.7V238.47z"/>
<polygon class="st0" points="169.95,187.66 169.02,187.66 164.57,144.06 149.37,144.06 144.87,187.66 143.94,187.66 139.11,144.06 
	119.29,144.06 131.28,238.47 150.35,238.47 155.82,197.62 156.75,197.62 162.02,238.47 181.19,238.47 193.14,144.06 174.67,144.06 
	"/>
<path class="st0" d="M335.04,206.29l3.7-30.81h0.93l3.77,30.81H335.04z M326.04,144.06l-15.01,94.41h20.15l1.83-15.22h12.5
	l1.86,15.22h20.92l-15.01-94.41H326.04z"/>
<path class="st0" d="M439.72,206.29l3.69-30.81h0.93l3.77,30.81H439.72z M430.72,144.06l-15.01,94.41h20.15l1.82-15.22h12.5
	l1.86,15.22h20.92l-15.01-94.41H430.72z"/>
<path class="st1" d="M32.02,311.06c0,1.6,1.03,3,2.44,3h0.94c1.31,0,2.35-1.41,2.35-3v-54.05h15.48v59.68l-9.76,9.76H26.86
	l-9.85-9.76V293.7h15.01V311.06z"/>
<path class="st1" d="M58.48,295.2l6.19-3.57l-6.19-3.57v-6.48l6.19-3.57l-6.19-3.57v-7.69l9.76-9.76h17.08l9.76,9.76v49.92
	l-9.76,9.76H68.24l-9.76-9.76v-7.88l6.19-3.57l-6.19-3.57V295.2z M79.6,311.06V272.4c0-1.6-1.03-3-2.35-3h-0.94
	c-1.31,0-2.35,1.41-2.35,3v38.66c0,1.6,1.03,3,2.35,3h0.94C78.57,314.07,79.6,312.66,79.6,311.06z"/>
<path class="st1" d="M137.03,257.01v59.68l-9.85,9.76h-17.08l-9.76-9.76v-59.68h15.48v54.05c0,1.6,1.03,3,2.44,3h0.84
	c1.41,0,2.44-1.41,2.44-3v-54.05H137.03z"/>
<path class="st1" d="M142.56,284.6l6.19-3.57l-6.19-3.57v-6.48l6.19-3.57l-6.19-3.57v-6.85h26.93l9.76,9.76v18.11l-7.23,7.23
	l7.23,7.13v18.49l1.31,8.73h-15.67l-1.13-7.6v-17.92c0-1.6-1.03-2.91-2.44-2.91h-3.28v28.43h-15.48v-28.25l6.19-3.57l-6.19-3.57
	V284.6z M161.33,285.63c1.41,0,2.44-1.41,2.44-3V272.4c0-1.6-1.03-3-2.44-3h-3.28v16.23H161.33z"/>
<path class="st1" d="M205.62,285.16h0.84v-28.15h14.55v69.44h-13.23l-7.69-29.94h-0.84v29.94H184.6v-69.44h14.73L205.62,285.16z"/>
<path class="st1" d="M226.64,257.01h28.9v13.33h-13.42v14.36h12.29v13.33h-12.29v15.11h13.42v13.33h-28.9V257.01z"/>
<path class="st1" d="M270.46,326.45v-16.14l6.76-3.38l-6.85-3.38l-1.97-7.51l5.44-2.72l-7.04-3.47l-1.88-7.41l5.44-2.72l-7.04-3.57
	l-4.97-19.14h15.48l4.6,23.27h0.75l4.32-23.27h14.64l-12.2,46.83v22.62H270.46z"/>
<path class="st1" d="M342.43,300.74h-11.45v25.71H315.5v-69.44h26.93l9.76,9.76v24.21L342.43,300.74z M334.26,288.35
	c1.41,0,2.44-1.41,2.44-3V272.4c0-1.6-1.03-3-2.44-3h-3.28v18.96H334.26z"/>
<path class="st1" d="M356.78,257.01h15.48v56.12h12.2v13.33h-27.68V257.01z"/>
<path class="st1" d="M402.11,326.45h-14.92l3.75-30.12l7.04-3.47l-6.19-3.1l0.84-6.94l7.13-3.57l-6.29-3.1l0.94-6.94l7.04-3.57
	l-6.19-3.1l0.66-5.54h22.8l8.73,69.44h-15.39l-1.03-11.17h-7.88L402.11,326.45z M404.17,302.8h5.72l-2.44-26.09h-0.94L404.17,302.8z
	"/>
<path class="st1" d="M452.21,285.16h0.84v-28.15h14.55v69.44h-13.23l-7.69-29.94h-0.84v29.94h-14.64v-69.44h14.73L452.21,285.16z"/>
<path class="st1" d="M494.25,285.16h0.84v-28.15h14.55v69.44h-13.23l-7.69-29.94h-0.84v29.94h-14.64v-69.44h14.73L494.25,285.16z"/>
<path class="st1" d="M515.27,306.56l6.19-3.57l-6.19-3.57v-6.48l6.19-3.57l-6.19-3.57v-28.81h28.9v13.33h-13.42v14.36h12.29v13.33
	h-12.29v15.11h13.42v13.33h-28.9v-6.29l6.19-3.57l-6.19-3.57V306.56z"/>
<path class="st1" d="M570.07,300.93c0-1.6-1.03-2.91-2.44-2.91h-3.29v28.43h-15.48v-69.44h26.93l9.76,9.76v18.11l-7.23,7.23
	l7.23,7.13v18.49l1.31,8.73H571.2l-1.13-7.6V300.93z M567.63,285.63c1.41,0,2.44-1.41,2.44-3V272.4c0-1.6-1.03-3-2.44-3h-3.29v16.23
	H567.63z"/>
</svg>
