<?xml version="1.0" encoding="utf-8"?>
<!-- Generator: Adobe Illustrator 23.0.1, SVG Export Plug-In . SVG Version: 6.00 Build 0)  -->
<svg version="1.1" id="Layer_1" xmlns="http://www.w3.org/2000/svg" xmlns:xlink="http://www.w3.org/1999/xlink" x="0px" y="0px"
	 viewBox="0 0 294.32 294.32" style="enable-background:new 0 0 294.32 294.32;" xml:space="preserve">
<style type="text/css">
	.st0{fill:#006998;}
	.st1{fill:#0097BA;}
	.st2{fill:#3B5999;}
	.st3{fill:#FFEDD6;}
	.st4{fill:#61C9F0;}
	.st5{fill:#E28413;}
	.st6{fill:#850D17;}
</style>
<g>
	<path class="st2" d="M294.32,249.6c0,24.7-20.02,44.72-44.72,44.72H44.72C20.02,294.32,0,274.3,0,249.6V44.72
		C0,20.02,20.02,0,44.72,0H249.6c24.7,0,44.72,20.02,44.72,44.72V249.6z"/>
	<path class="st3" d="M225.77,170.03l4.76-36.9h-36.54v-23.56c0-10.68,2.98-17.97,18.3-17.97l19.52-0.01V58.58
		c-3.37-0.45-14.96-1.45-28.47-1.45c-28.18,0-47.45,17.2-47.45,48.79v27.21h-31.87v36.9h31.87v94.69h38.1v-94.69H225.77z"/>
</g>
</svg>
