<?xml version="1.0" encoding="utf-8"?>
<!-- Generator: Adobe Illustrator 23.0.1, SVG Export Plug-In . SVG Version: 6.00 Build 0)  -->
<svg version="1.1" id="Layer_1" xmlns="http://www.w3.org/2000/svg" xmlns:xlink="http://www.w3.org/1999/xlink" x="0px" y="0px"
	 viewBox="0 0 294.32 294.32" style="enable-background:new 0 0 294.32 294.32;" xml:space="preserve">
<style type="text/css">
	.st0{fill:#006998;}
	.st1{fill:#0097BA;}
	.st2{fill:#3B5999;}
	.st3{fill:#FFEDD6;}
	.st4{fill:#61C9F0;}
	.st5{fill:#E28413;}
	.st6{fill:#850D17;}
</style>
<path class="st0" d="M211.18,34.37c0,9.47-3.51,17.56-10.58,24.21c-7.04,6.67-15.53,10.01-25.46,10.01
	c-9.96,0-18.47-3.34-25.59-10.01c-7.11-6.65-10.67-14.74-10.67-24.21c0-9.45,3.56-17.55,10.67-24.28C156.66,3.36,165.19,0,175.14,0
	c9.93,0,18.42,3.37,25.46,10.09C207.67,16.82,211.18,24.92,211.18,34.37 M207.34,262.56l-4.05,16.81
	c-12.15,4.87-21.85,8.57-29.07,11.12c-7.23,2.55-15.64,3.83-25.21,3.83c-14.7,0-26.14-3.66-34.3-10.93
	c-8.16-7.3-12.24-16.54-12.24-27.76c0-4.34,0.29-8.81,0.91-13.36c0.62-4.55,1.61-9.69,2.96-15.42l15.18-54.57
	c1.35-5.23,2.5-10.18,3.42-14.86c0.93-4.65,1.38-8.93,1.38-12.79c0-6.97-1.42-11.84-4.25-14.58c-2.83-2.73-8.22-4.12-16.24-4.12
	c-3.92,0-7.96,0.64-12.07,1.87c-4.13,1.24-7.66,2.44-10.62,3.55l4.06-16.82c9.94-4.11,19.45-7.63,28.54-10.56
	c9.09-2.93,17.68-4.4,25.81-4.4c14.6,0,25.87,3.58,33.78,10.75c7.91,7.17,11.87,16.47,11.87,27.94c0,2.37-0.26,6.55-0.82,12.52
	c-0.55,5.99-1.56,11.47-3.04,16.46l-15.11,54.35c-1.24,4.37-2.35,9.35-3.32,14.97c-1,5.58-1.48,9.84-1.48,12.7
	c0,7.22,1.58,12.15,4.76,14.77c3.2,2.62,8.71,3.92,16.54,3.92c3.68,0,7.86-0.66,12.5-1.96C201.87,264.7,205.25,263.56,207.34,262.56
	"/>
</svg>
