<?xml version="1.0" encoding="utf-8"?>
<!-- Generator: Adobe Illustrator 23.0.1, SVG Export Plug-In . SVG Version: 6.00 Build 0)  -->
<svg version="1.1" id="Layer_1" xmlns="http://www.w3.org/2000/svg" xmlns:xlink="http://www.w3.org/1999/xlink" x="0px" y="0px"
	 viewBox="0 0 294.32 294.32" style="enable-background:new 0 0 294.32 294.32;" xml:space="preserve">
<style type="text/css">
	.st0{fill:#006998;}
	.st1{fill:#0097BA;}
	.st2{fill:#3B5999;}
	.st3{fill:#FFEDD6;}
	.st4{fill:#61C9F0;}
	.st5{fill:#E28413;}
	.st6{fill:#850D17;}
</style>
<g>
	<path class="st5" d="M294.33,249.59c0,24.7-20.03,44.72-44.72,44.72H44.72C20.02,294.32,0,274.3,0,249.59V44.72
		C0,20.02,20.02,0,44.72,0H249.6c24.7,0,44.72,20.02,44.72,44.72V249.59z"/>
	<path class="st3" d="M149.34,117.15c-18.98,0-34.37,14.9-34.37,33.32c0,18.39,15.39,33.31,34.37,33.31
		c18.99,0,34.39-14.92,34.39-33.31C183.73,132.05,168.33,117.15,149.34,117.15 M215.42,137.63h-15.06c1.43,4.67,2.21,9.58,2.21,14.7
		c0,28.47-23.83,51.55-53.22,51.55c-29.38,0-53.21-23.08-53.21-51.55c0-5.12,0.78-10.03,2.2-14.7H82.62v72.32
		c0,3.74,3.06,6.79,6.8,6.79h119.21c3.74,0,6.8-3.05,6.8-6.79V137.63z M188.29,84.25c-4.24,0-7.71,3.48-7.71,7.72v18.44
		c0,4.25,3.46,7.71,7.71,7.71h19.35c4.24,0,7.71-3.47,7.71-7.71V91.97c0-4.24-3.47-7.72-7.71-7.72H188.29z M85.57,65.24H212.8
		c12.09,0,21.97,9.88,21.97,21.97v127.24c0,12.08-9.88,21.96-21.97,21.96H85.57c-12.09,0-21.98-9.88-21.98-21.96V87.21
		C63.59,75.12,73.48,65.24,85.57,65.24"/>
</g>
</svg>
