<?xml version="1.0" encoding="utf-8"?>
<!-- Generator: Adobe Illustrator 23.0.1, SVG Export Plug-In . SVG Version: 6.00 Build 0)  -->
<svg version="1.1" id="Layer_1" xmlns="http://www.w3.org/2000/svg" xmlns:xlink="http://www.w3.org/1999/xlink" x="0px" y="0px"
	 viewBox="0 0 294.32 294.32" style="enable-background:new 0 0 294.32 294.32;" xml:space="preserve">
<style type="text/css">
	.st0{fill:#006998;}
	.st1{fill:#0097BA;}
	.st2{fill:#3B5999;}
	.st3{fill:#FFEDD6;}
	.st4{fill:#61C9F0;}
	.st5{fill:#E28413;}
	.st6{fill:#850D17;}
</style>
<g>
	<path class="st6" d="M294.32,249.6c0,24.7-20.03,44.72-44.72,44.72H44.72C20.03,294.32,0,274.3,0,249.6V44.72
		C0,20.02,20.03,0,44.72,0H249.6c24.7,0,44.72,20.02,44.72,44.72V249.6z"/>
	<path class="st3" d="M143.84,54.47c-53.09,0-96.14,43.04-96.14,96.14c0,39.36,23.67,73.18,57.55,88.05
		c-0.27-6.73-0.05-14.78,1.67-22.07c1.85-7.81,12.37-52.4,12.37-52.4s-3.07-6.13-3.07-15.2c0-14.23,8.27-24.88,18.56-24.88
		c8.73,0,12.96,6.56,12.96,14.43c0,8.79-5.61,21.94-8.49,34.11c-2.41,10.2,5.12,18.51,15.16,18.51c18.22,0,30.48-23.39,30.48-51.11
		c0-21.06-14.19-36.83-40-36.83c-29.16,0-47.32,21.74-47.32,46.03c0,8.38,2.47,14.29,6.34,18.86c1.78,2.1,2.03,2.94,1.37,5.35
		c-0.45,1.78-1.51,6.03-1.95,7.72c-0.64,2.45-2.61,3.31-4.81,2.41c-13.43-5.48-19.69-20.19-19.69-36.72
		c0-27.31,23.02-60.06,68.71-60.06c36.7,0,60.87,26.56,60.87,55.08c0,37.71-20.98,65.88-51.88,65.88
		c-10.38,0-20.15-5.61-23.48-11.98c0,0-5.59,22.15-6.76,26.42c-2.04,7.4-6.03,14.82-9.68,20.59c8.64,2.55,17.77,3.94,27.24,3.94
		c53.09,0,96.13-43.04,96.13-96.13C239.96,97.51,196.93,54.47,143.84,54.47"/>
</g>
</svg>
