<?xml version="1.0" encoding="utf-8"?>
<!-- Generator: Adobe Illustrator 23.0.1, SVG Export Plug-In . SVG Version: 6.00 Build 0)  -->
<svg version="1.1" id="Layer_1" xmlns="http://www.w3.org/2000/svg" xmlns:xlink="http://www.w3.org/1999/xlink" x="0px" y="0px"
	 viewBox="0 0 294.32 294.32" style="enable-background:new 0 0 294.32 294.32;" xml:space="preserve">
<style type="text/css">
	.st0{fill:#006998;}
	.st1{fill:#0097BA;}
	.st2{fill:#3B5999;}
	.st3{fill:#FFEDD6;}
	.st4{fill:#61C9F0;}
	.st5{fill:#E28413;}
	.st6{fill:#850D17;}
</style>
<g>
	<path class="st4" d="M294.32,249.6c0,24.7-20.03,44.72-44.73,44.72H44.72C20.03,294.32,0,274.3,0,249.6V44.72
		C0,20.02,20.03,0,44.72,0h204.87c24.7,0,44.73,20.02,44.73,44.72V249.6z"/>
	<path class="st3" d="M252.3,93.29c-6.91,3.07-14.35,5.14-22.14,6.07c7.96-4.77,14.08-12.32,16.96-21.33
		c-7.44,4.42-15.69,7.63-24.48,9.36c-7.04-7.5-17.06-12.18-28.15-12.18c-21.3,0-38.56,17.27-38.56,38.56c0,3.03,0.34,5.96,1,8.79
		c-32.05-1.6-60.45-16.95-79.48-40.29c-3.31,5.7-5.21,12.32-5.21,19.39c0,13.38,6.8,25.19,17.14,32.09
		c-6.31-0.19-12.26-1.94-17.46-4.83v0.49c0,18.68,13.29,34.27,30.93,37.81c-3.23,0.88-6.65,1.36-10.16,1.36
		c-2.48,0-4.9-0.25-7.26-0.7c4.91,15.32,19.14,26.47,36.02,26.78c-13.19,10.34-29.81,16.51-47.89,16.51c-3.11,0-6.17-0.19-9.19-0.54
		c17.06,10.93,37.33,17.32,59.11,17.32c70.92,0,109.7-58.74,109.7-109.7c0-1.67-0.04-3.33-0.1-5
		C240.59,107.82,247.12,101.03,252.3,93.29"/>
</g>
</svg>
