<?xml version="1.0" encoding="utf-8"?>
<!-- Generator: Adobe Illustrator 23.0.0, SVG Export Plug-In . SVG Version: 6.00 Build 0)  -->
<svg version="1.1" id="Í_xBC__xB2_ã_x5F_1" xmlns="http://www.w3.org/2000/svg" xmlns:xlink="http://www.w3.org/1999/xlink"
	 x="0px" y="0px" viewBox="0 0 200 200" style="enable-background:new 0 0 200 200;" xml:space="preserve">
<style type="text/css">
	.¹°ÐÎÂÌÉ«{fill:url(#SVGID_1_);stroke:#FFFFFF;stroke-width:0.25;stroke-miterlimit:1;}
	.st0{fill:#A87942;}
	.st1{fill:#60A431;}
	.st2{fill:url(#SVGID_2_);}
	.st3{fill:url(#SVGID_3_);}
	.st4{fill:url(#SVGID_4_);}
	.st5{fill:url(#SVGID_5_);}
	.st6{fill:url(#SVGID_6_);}
	.st7{fill:url(#SVGID_7_);}
	.st8{fill:url(#SVGID_8_);}
	.st9{fill:url(#SVGID_9_);}
	.st10{fill:url(#SVGID_10_);}
	.st11{fill:url(#SVGID_11_);}
	.st12{fill:url(#SVGID_12_);}
	.st13{fill:url(#SVGID_13_);}
	.st14{fill:url(#SVGID_14_);}
	.st15{fill:url(#SVGID_15_);}
	.st16{fill:url(#SVGID_16_);}
	.st17{fill:url(#SVGID_17_);}
	.st18{fill:url(#SVGID_18_);}
	.st19{fill:url(#SVGID_19_);}
	.st20{fill:url(#SVGID_20_);}
	.st21{fill:url(#SVGID_21_);}
	.st22{fill:url(#SVGID_22_);}
	.st23{fill:url(#SVGID_23_);}
	.st24{fill:url(#SVGID_24_);}
	.st25{fill:url(#SVGID_25_);}
	.st26{fill:url(#SVGID_26_);}
	.st27{fill:url(#SVGID_27_);}
	.st28{fill:url(#SVGID_28_);}
	.st29{fill:url(#SVGID_29_);}
	.st30{fill:url(#SVGID_30_);}
	.st31{fill:url(#SVGID_31_);}
	.st32{fill:url(#SVGID_32_);}
	.st33{fill:url(#SVGID_33_);}
	.st34{fill:url(#SVGID_34_);}
	.st35{fill:url(#SVGID_35_);}
	.st36{fill:url(#SVGID_36_);}
	.st37{fill:url(#SVGID_37_);}
	.st38{fill:url(#SVGID_38_);}
	.st39{fill:#FAF2BB;}
	.st40{fill:#13110C;}
	.st41{fill:#FFFFFF;}
</style>
<linearGradient id="SVGID_1_" gradientUnits="userSpaceOnUse" x1="-197.6401" y1="520.9448" x2="-196.933" y2="520.2377">
	<stop  offset="0" style="stop-color:#1DA238"/>
	<stop  offset="0.9831" style="stop-color:#24391D"/>
</linearGradient>
<g>
	<g>
		<path class="st0" d="M193.62,100.66c0-18.72-12.89-45.83-23.13-60.85c-12.54-18.4-43.29-29.25-64.15-32.91
			C62.63-0.76,1.41,46.48,5.41,92.25c2.39,27.29,3.9,45.35,21.55,68.05c16.91,21.75,43.81,35.03,71.12,35.03
			C146.7,195.34,193.62,150.45,193.62,100.66z"/>
	</g>
	<g>
		<path class="st1" d="M189.96,99.99c0-17.85-12.34-43.73-22.15-58.06c-12.01-17.56-41.46-27.92-61.44-31.41
			C64.52,3.21,5.89,48.29,9.73,91.97c2.29,26.05,3.73,43.28,20.63,64.94c16.19,20.76,41.95,33.43,68.12,33.43
			C145.03,190.35,189.96,147.52,189.96,99.99z"/>
	</g>
	<g>
		
			<radialGradient id="SVGID_2_" cx="99.6306" cy="95.3519" r="87.9017" gradientTransform="matrix(0.9788 0 0 0.974 2.2315 5.0169)" gradientUnits="userSpaceOnUse">
			<stop  offset="0" style="stop-color:#FFFFFF"/>
			<stop  offset="0.3462" style="stop-color:#D1DC69"/>
			<stop  offset="0.5653" style="stop-color:#CFDB68"/>
			<stop  offset="0.6782" style="stop-color:#C7D764"/>
			<stop  offset="0.7669" style="stop-color:#BAD05D"/>
			<stop  offset="0.843" style="stop-color:#A7C754"/>
			<stop  offset="0.911" style="stop-color:#8EBB48"/>
			<stop  offset="0.9723" style="stop-color:#70AC39"/>
			<stop  offset="1" style="stop-color:#60A431"/>
		</radialGradient>
		<path class="st2" d="M185.53,97.85c0-16.99-11.73-41.59-21.05-55.22c-11.43-16.7-39.43-26.55-58.43-29.87
			c-39.8-6.95-95.55,35.92-91.9,77.46c2.18,24.76,3.55,41.15,19.62,61.75c15.4,19.74,39.89,31.79,64.77,31.79
			C142.8,183.77,185.53,143.04,185.53,97.85z"/>
	</g>
	<g>
		
			<radialGradient id="SVGID_3_" cx="100.6035" cy="62.1828" r="16.2741" gradientTransform="matrix(0.9788 0 0 0.974 2.2315 5.0169)" gradientUnits="userSpaceOnUse">
			<stop  offset="0" style="stop-color:#60A431"/>
			<stop  offset="0.2553" style="stop-color:#63A632"/>
			<stop  offset="0.4696" style="stop-color:#6EAB33"/>
			<stop  offset="0.669" style="stop-color:#7FB436"/>
			<stop  offset="0.8583" style="stop-color:#97C039"/>
			<stop  offset="1" style="stop-color:#AFCC3D"/>
		</radialGradient>
		<path class="st3" d="M102.88,45.34c-0.06,1.07-1.02,42.62-2.22,42.55c-1.2-0.07-2.2-41.75-2.14-42.82
			c0.06-1.07,1.09-1.88,2.29-1.8C102.01,43.35,102.94,44.27,102.88,45.34z"/>
		
			<radialGradient id="SVGID_4_" cx="100.6035" cy="133.2244" r="16.2727" gradientTransform="matrix(0.9788 0 0 0.974 2.2315 5.0169)" gradientUnits="userSpaceOnUse">
			<stop  offset="0" style="stop-color:#60A431"/>
			<stop  offset="0.2553" style="stop-color:#63A632"/>
			<stop  offset="0.4696" style="stop-color:#6EAB33"/>
			<stop  offset="0.669" style="stop-color:#7FB436"/>
			<stop  offset="0.8583" style="stop-color:#97C039"/>
			<stop  offset="1" style="stop-color:#AFCC3D"/>
		</radialGradient>
		<path class="st4" d="M102.88,155.02c-0.06-1.07-1.02-42.62-2.22-42.55c-1.2,0.07-2.2,41.74-2.14,42.81
			c0.06,1.07,1.09,1.87,2.29,1.8C102.01,157.01,102.94,156.09,102.88,155.02z"/>
		
			<radialGradient id="SVGID_5_" cx="91.2276" cy="55.7691" r="19.5921" gradientTransform="matrix(0.9788 0 0 0.974 2.2315 5.0169)" gradientUnits="userSpaceOnUse">
			<stop  offset="0" style="stop-color:#60A431"/>
			<stop  offset="0.2553" style="stop-color:#63A632"/>
			<stop  offset="0.4696" style="stop-color:#6EAB33"/>
			<stop  offset="0.669" style="stop-color:#7FB436"/>
			<stop  offset="0.8583" style="stop-color:#97C039"/>
			<stop  offset="1" style="stop-color:#AFCC3D"/>
		</radialGradient>
		<path class="st5" d="M90.93,35.09c0.16,1.27,8.21,50.34,6.65,50.5c-1.55,0.17-12.13-48.62-12.29-49.89
			c-0.15-1.27,0.98-2.43,2.55-2.6C89.39,32.93,90.78,33.83,90.93,35.09z"/>
		
			<radialGradient id="SVGID_6_" cx="109.2386" cy="139.3558" r="19.5952" gradientTransform="matrix(0.9788 0 0 0.974 2.2315 5.0169)" gradientUnits="userSpaceOnUse">
			<stop  offset="0" style="stop-color:#60A431"/>
			<stop  offset="0.2553" style="stop-color:#63A632"/>
			<stop  offset="0.4696" style="stop-color:#6EAB33"/>
			<stop  offset="0.669" style="stop-color:#7FB436"/>
			<stop  offset="0.8583" style="stop-color:#97C039"/>
			<stop  offset="1" style="stop-color:#AFCC3D"/>
		</radialGradient>
		<path class="st6" d="M115.38,164.06c-0.32-1.24-10.79-49.91-12.32-49.57c-1.53,0.34,6.48,49.55,6.79,50.79
			c0.32,1.24,1.82,1.98,3.34,1.64C114.72,166.58,115.7,165.3,115.38,164.06z"/>
		
			<radialGradient id="SVGID_7_" cx="89.1255" cy="68.4107" r="14.3044" gradientTransform="matrix(0.9788 0 0 0.974 2.2315 5.0169)" gradientUnits="userSpaceOnUse">
			<stop  offset="0" style="stop-color:#60A431"/>
			<stop  offset="0.2553" style="stop-color:#63A632"/>
			<stop  offset="0.4696" style="stop-color:#6EAB33"/>
			<stop  offset="0.669" style="stop-color:#7FB436"/>
			<stop  offset="0.8583" style="stop-color:#97C039"/>
			<stop  offset="1" style="stop-color:#AFCC3D"/>
		</radialGradient>
		<path class="st7" d="M85.86,54.53c0.26,0.89,11.97,35.09,10.94,35.4c-1.03,0.3-14.4-33.41-14.66-34.3
			c-0.28-0.89,0.34-1.85,1.37-2.16C84.54,53.16,85.59,53.64,85.86,54.53z"/>
		
			<radialGradient id="SVGID_8_" cx="111.6785" cy="126.5303" r="14.3099" gradientTransform="matrix(0.9788 0 0 0.974 2.2315 5.0169)" gradientUnits="userSpaceOnUse">
			<stop  offset="0" style="stop-color:#60A431"/>
			<stop  offset="0.2553" style="stop-color:#63A632"/>
			<stop  offset="0.4696" style="stop-color:#6EAB33"/>
			<stop  offset="0.669" style="stop-color:#7FB436"/>
			<stop  offset="0.8583" style="stop-color:#97C039"/>
			<stop  offset="1" style="stop-color:#AFCC3D"/>
		</radialGradient>
		<path class="st8" d="M118.83,144.05c-0.37-0.85-13.66-34.49-14.64-34.06c-0.99,0.43,10.7,34.74,11.07,35.59
			c0.37,0.85,1.48,1.21,2.46,0.78C118.7,145.93,119.2,144.9,118.83,144.05z"/>
		
			<radialGradient id="SVGID_9_" cx="80.7395" cy="64.7739" r="17.474" gradientTransform="matrix(0.9788 0 0 0.974 2.2315 5.0169)" gradientUnits="userSpaceOnUse">
			<stop  offset="0" style="stop-color:#60A431"/>
			<stop  offset="0.2553" style="stop-color:#63A632"/>
			<stop  offset="0.4696" style="stop-color:#6EAB33"/>
			<stop  offset="0.669" style="stop-color:#7FB436"/>
			<stop  offset="0.8583" style="stop-color:#97C039"/>
			<stop  offset="1" style="stop-color:#AFCC3D"/>
		</radialGradient>
		<path class="st9" d="M73.11,48.61c0.51,1,21.86,39.46,20.69,40.04c-1.17,0.58-24.41-36.94-24.93-37.95
			c-0.51-1.01,0.02-2.3,1.19-2.88C71.23,47.25,72.59,47.6,73.11,48.61z"/>
		
			<radialGradient id="SVGID_10_" cx="119.8173" cy="130.0046" r="17.4801" gradientTransform="matrix(0.9788 0 0 0.974 2.2315 5.0169)" gradientUnits="userSpaceOnUse">
			<stop  offset="0" style="stop-color:#60A431"/>
			<stop  offset="0.2553" style="stop-color:#63A632"/>
			<stop  offset="0.4696" style="stop-color:#6EAB33"/>
			<stop  offset="0.669" style="stop-color:#7FB436"/>
			<stop  offset="0.8583" style="stop-color:#97C039"/>
			<stop  offset="1" style="stop-color:#AFCC3D"/>
		</radialGradient>
		<path class="st10" d="M131.8,148.77c-0.63-0.94-23.76-38.38-24.85-37.68c-1.1,0.72,20.26,39.31,20.89,40.25
			c0.63,0.94,2.03,1.13,3.12,0.42C132.06,151.06,132.43,149.71,131.8,148.77z"/>
		
			<radialGradient id="SVGID_11_" cx="79.4722" cy="73.9864" r="14.3622" gradientTransform="matrix(0.9788 0 0 0.974 2.2315 5.0169)" gradientUnits="userSpaceOnUse">
			<stop  offset="0" style="stop-color:#60A431"/>
			<stop  offset="0.2553" style="stop-color:#63A632"/>
			<stop  offset="0.4696" style="stop-color:#6EAB33"/>
			<stop  offset="0.669" style="stop-color:#7FB436"/>
			<stop  offset="0.8583" style="stop-color:#97C039"/>
			<stop  offset="1" style="stop-color:#AFCC3D"/>
		</radialGradient>
		<path class="st11" d="M70.24,62.97c0.58,0.72,23.92,28.2,23.04,28.82c-0.88,0.61-25.66-25.85-26.23-26.58
			c-0.58-0.73-0.33-1.82,0.56-2.44C68.48,62.15,69.67,62.24,70.24,62.97z"/>
		
			<radialGradient id="SVGID_12_" cx="121.0783" cy="120.5468" r="14.3639" gradientTransform="matrix(0.9788 0 0 0.974 2.2315 5.0169)" gradientUnits="userSpaceOnUse">
			<stop  offset="0" style="stop-color:#60A431"/>
			<stop  offset="0.2553" style="stop-color:#63A632"/>
			<stop  offset="0.4696" style="stop-color:#6EAB33"/>
			<stop  offset="0.669" style="stop-color:#7FB436"/>
			<stop  offset="0.8583" style="stop-color:#97C039"/>
			<stop  offset="1" style="stop-color:#AFCC3D"/>
		</radialGradient>
		<path class="st12" d="M133.61,134.1c-0.66-0.66-25.33-27.08-26.14-26.37c-0.79,0.71,22.58,28.28,23.25,28.95
			c0.66,0.66,1.84,0.61,2.64-0.1C134.16,135.87,134.26,134.76,133.61,134.1z"/>
		
			<radialGradient id="SVGID_13_" cx="72.9402" cy="75.1133" r="16.1311" gradientTransform="matrix(0.9788 0 0 0.974 2.2315 5.0169)" gradientUnits="userSpaceOnUse">
			<stop  offset="0" style="stop-color:#60A431"/>
			<stop  offset="0.2553" style="stop-color:#63A632"/>
			<stop  offset="0.4696" style="stop-color:#6EAB33"/>
			<stop  offset="0.669" style="stop-color:#7FB436"/>
			<stop  offset="0.8583" style="stop-color:#97C039"/>
			<stop  offset="1" style="stop-color:#AFCC3D"/>
		</radialGradient>
		<path class="st13" d="M59.89,64.59c0.78,0.69,31.85,26.77,31.02,27.61c-0.84,0.84-33.27-23.86-34.04-24.56
			c-0.78-0.69-0.72-1.95,0.11-2.79C57.82,64.01,59.13,63.89,59.89,64.59z"/>
		
			<radialGradient id="SVGID_14_" cx="127.4093" cy="119.314" r="16.1302" gradientTransform="matrix(0.9788 0 0 0.974 2.2315 5.0169)" gradientUnits="userSpaceOnUse">
			<stop  offset="0" style="stop-color:#60A431"/>
			<stop  offset="0.2553" style="stop-color:#63A632"/>
			<stop  offset="0.4696" style="stop-color:#6EAB33"/>
			<stop  offset="0.669" style="stop-color:#7FB436"/>
			<stop  offset="0.8583" style="stop-color:#97C039"/>
			<stop  offset="1" style="stop-color:#AFCC3D"/>
		</radialGradient>
		<path class="st14" d="M143.53,131.56c-0.85-0.6-33.15-25.28-33.88-24.34c-0.73,0.93,30.4,27.12,31.26,27.72
			c0.86,0.61,2.14,0.34,2.86-0.59C144.49,133.41,144.38,132.17,143.53,131.56z"/>
		
			<radialGradient id="SVGID_15_" cx="61.6358" cy="74.0029" r="20.6483" gradientTransform="matrix(0.9788 0 0 0.974 2.2315 5.0169)" gradientUnits="userSpaceOnUse">
			<stop  offset="0" style="stop-color:#60A431"/>
			<stop  offset="0.2553" style="stop-color:#63A632"/>
			<stop  offset="0.4696" style="stop-color:#6EAB33"/>
			<stop  offset="0.669" style="stop-color:#7FB436"/>
			<stop  offset="0.8583" style="stop-color:#97C039"/>
			<stop  offset="1" style="stop-color:#AFCC3D"/>
		</radialGradient>
		<path class="st15" d="M42.28,62.53c1.12,0.75,45.44,28.15,44.6,29.44c-0.83,1.3-46.52-24-47.64-24.75
			c-1.12-0.75-1.34-2.4-0.5-3.69C39.58,62.23,41.17,61.78,42.28,62.53z"/>
		
			<radialGradient id="SVGID_16_" cx="138.4749" cy="120.5365" r="20.644" gradientTransform="matrix(0.9788 0 0 0.974 2.2315 5.0169)" gradientUnits="userSpaceOnUse">
			<stop  offset="0" style="stop-color:#60A431"/>
			<stop  offset="0.2553" style="stop-color:#63A632"/>
			<stop  offset="0.4696" style="stop-color:#6EAB33"/>
			<stop  offset="0.669" style="stop-color:#7FB436"/>
			<stop  offset="0.8583" style="stop-color:#97C039"/>
			<stop  offset="1" style="stop-color:#AFCC3D"/>
		</radialGradient>
		<path class="st16" d="M160.85,132.08c-1.2-0.61-46.72-25.9-47.4-24.51c-0.69,1.38,43.74,28.93,44.93,29.53
			c1.19,0.61,2.72-0.02,3.4-1.41C162.46,134.3,162.04,132.69,160.85,132.08z"/>
		
			<radialGradient id="SVGID_17_" cx="65.1009" cy="85.1534" r="16.9104" gradientTransform="matrix(0.9788 0 0 0.974 2.2315 5.0169)" gradientUnits="userSpaceOnUse">
			<stop  offset="0" style="stop-color:#60A431"/>
			<stop  offset="0.2553" style="stop-color:#63A632"/>
			<stop  offset="0.4696" style="stop-color:#6EAB33"/>
			<stop  offset="0.669" style="stop-color:#7FB436"/>
			<stop  offset="0.8583" style="stop-color:#97C039"/>
			<stop  offset="1" style="stop-color:#AFCC3D"/>
		</radialGradient>
		<path class="st17" d="M46.9,80.27c1.02,0.39,41.62,14.39,41.1,15.44c-0.5,1.04-41.91-11.28-42.94-11.68
			c-1.03-0.39-1.45-1.56-0.94-2.59C44.62,80.4,45.87,79.88,46.9,80.27z"/>
		
			<radialGradient id="SVGID_18_" cx="134.8871" cy="109.0348" r="16.9094" gradientTransform="matrix(0.9788 0 0 0.974 2.2315 5.0169)" gradientUnits="userSpaceOnUse">
			<stop  offset="0" style="stop-color:#60A431"/>
			<stop  offset="0.2553" style="stop-color:#63A632"/>
			<stop  offset="0.4696" style="stop-color:#6EAB33"/>
			<stop  offset="0.669" style="stop-color:#7FB436"/>
			<stop  offset="0.8583" style="stop-color:#97C039"/>
			<stop  offset="1" style="stop-color:#AFCC3D"/>
		</radialGradient>
		<path class="st18" d="M154.92,115.01c-1.08-0.28-42.35-12.61-42.72-11.52c-0.36,1.08,40.31,15.17,41.39,15.46
			c1.07,0.28,2.25-0.37,2.61-1.46C156.57,116.41,156,115.3,154.92,115.01z"/>
		
			<radialGradient id="SVGID_19_" cx="62.6568" cy="89.5562" r="17.4134" gradientTransform="matrix(0.9788 0 0 0.974 2.2315 5.0169)" gradientUnits="userSpaceOnUse">
			<stop  offset="0" style="stop-color:#60A431"/>
			<stop  offset="0.2553" style="stop-color:#63A632"/>
			<stop  offset="0.4696" style="stop-color:#6EAB33"/>
			<stop  offset="0.669" style="stop-color:#7FB436"/>
			<stop  offset="0.8583" style="stop-color:#97C039"/>
			<stop  offset="1" style="stop-color:#AFCC3D"/>
		</radialGradient>
		<path class="st19" d="M42.68,87.03c1.11,0.27,44.69,9.04,44.39,10.32c-0.3,1.28-44.38-5.42-45.49-5.69
			c-1.11-0.27-1.77-1.52-1.46-2.8C40.42,87.58,41.57,86.76,42.68,87.03z"/>
		
			<radialGradient id="SVGID_20_" cx="137.146" cy="104.7224" r="17.411" gradientTransform="matrix(0.9788 0 0 0.974 2.2315 5.0169)" gradientUnits="userSpaceOnUse">
			<stop  offset="0" style="stop-color:#60A431"/>
			<stop  offset="0.2553" style="stop-color:#63A632"/>
			<stop  offset="0.4696" style="stop-color:#6EAB33"/>
			<stop  offset="0.669" style="stop-color:#7FB436"/>
			<stop  offset="0.8583" style="stop-color:#97C039"/>
			<stop  offset="1" style="stop-color:#AFCC3D"/>
		</radialGradient>
		<path class="st20" d="M158.19,107.51c-1.14-0.13-45.08-6.88-45.23-5.57c-0.15,1.3,43.55,10.17,44.68,10.3
			c1.14,0.13,2.18-0.82,2.33-2.12C160.12,108.81,159.32,107.65,158.19,107.51z"/>
		
			<radialGradient id="SVGID_21_" cx="61.6551" cy="96.9698" r="17.4337" gradientTransform="matrix(0.9788 0 0 0.974 2.2315 5.0169)" gradientUnits="userSpaceOnUse">
			<stop  offset="0" style="stop-color:#60A431"/>
			<stop  offset="0.2553" style="stop-color:#63A632"/>
			<stop  offset="0.4696" style="stop-color:#6EAB33"/>
			<stop  offset="0.669" style="stop-color:#7FB436"/>
			<stop  offset="0.8583" style="stop-color:#97C039"/>
			<stop  offset="1" style="stop-color:#AFCC3D"/>
		</radialGradient>
		<path class="st21" d="M40.75,97.56c1.15,0.05,45.96,0.89,45.88,1.94c-0.08,1.05-45.01,1.93-46.17,1.88
			c-1.16-0.05-2.02-0.95-1.94-2.01C38.6,98.31,39.6,97.5,40.75,97.56z"/>
		
			<radialGradient id="SVGID_22_" cx="137.8842" cy="96.9699" r="17.4347" gradientTransform="matrix(0.9788 0 0 0.974 2.2315 5.0169)" gradientUnits="userSpaceOnUse">
			<stop  offset="0" style="stop-color:#60A431"/>
			<stop  offset="0.2553" style="stop-color:#63A632"/>
			<stop  offset="0.4696" style="stop-color:#6EAB33"/>
			<stop  offset="0.669" style="stop-color:#7FB436"/>
			<stop  offset="0.8583" style="stop-color:#97C039"/>
			<stop  offset="1" style="stop-color:#AFCC3D"/>
		</radialGradient>
		<path class="st22" d="M159.02,97.56c-1.16,0.05-45.97,0.89-45.89,1.94c0.08,1.05,45.02,1.93,46.17,1.88
			c1.15-0.05,2.02-0.95,1.94-2.01C161.17,98.31,160.17,97.5,159.02,97.56z"/>
		
			<radialGradient id="SVGID_23_" cx="59.5302" cy="105.1825" r="18.7297" gradientTransform="matrix(0.9788 0 0 0.974 2.2315 5.0169)" gradientUnits="userSpaceOnUse">
			<stop  offset="0" style="stop-color:#60A431"/>
			<stop  offset="0.2553" style="stop-color:#63A632"/>
			<stop  offset="0.4696" style="stop-color:#6EAB33"/>
			<stop  offset="0.669" style="stop-color:#7FB436"/>
			<stop  offset="0.8583" style="stop-color:#97C039"/>
			<stop  offset="1" style="stop-color:#AFCC3D"/>
		</radialGradient>
		<path class="st23" d="M37.12,107.99c1.22-0.14,48.53-7.27,48.7-5.89c0.16,1.38-46.89,10.74-48.11,10.89
			c-1.22,0.14-2.34-0.87-2.51-2.25C35.03,109.36,35.9,108.13,37.12,107.99z"/>
		
			<radialGradient id="SVGID_24_" cx="139.7369" cy="89.1509" r="18.7331" gradientTransform="matrix(0.9788 0 0 0.974 2.2315 5.0169)" gradientUnits="userSpaceOnUse">
			<stop  offset="0" style="stop-color:#60A431"/>
			<stop  offset="0.2553" style="stop-color:#63A632"/>
			<stop  offset="0.4696" style="stop-color:#6EAB33"/>
			<stop  offset="0.669" style="stop-color:#7FB436"/>
			<stop  offset="0.8583" style="stop-color:#97C039"/>
			<stop  offset="1" style="stop-color:#AFCC3D"/>
		</radialGradient>
		<path class="st24" d="M161.49,86.33c-1.21,0.29-48.13,9.57-47.8,10.91c0.32,1.36,47.79-5.73,48.98-6.02
			c1.2-0.27,1.91-1.6,1.58-2.95C163.92,86.92,162.68,86.06,161.49,86.33z"/>
		
			<radialGradient id="SVGID_25_" cx="64.8707" cy="108.6211" r="16.7496" gradientTransform="matrix(0.9788 0 0 0.974 2.2315 5.0169)" gradientUnits="userSpaceOnUse">
			<stop  offset="0" style="stop-color:#60A431"/>
			<stop  offset="0.2553" style="stop-color:#63A632"/>
			<stop  offset="0.4696" style="stop-color:#6EAB33"/>
			<stop  offset="0.669" style="stop-color:#7FB436"/>
			<stop  offset="0.8583" style="stop-color:#97C039"/>
			<stop  offset="1" style="stop-color:#AFCC3D"/>
		</radialGradient>
		<path class="st25" d="M45.19,114.48c1.07-0.27,42.08-12.19,42.45-11.14c0.36,1.04-40.06,14.67-41.13,14.94
			c-1.07,0.27-2.23-0.35-2.59-1.4C43.56,115.83,44.13,114.76,45.19,114.48z"/>
		
			<radialGradient id="SVGID_26_" cx="134.2179" cy="85.5378" r="16.7566" gradientTransform="matrix(0.9788 0 0 0.974 2.2315 5.0169)" gradientUnits="userSpaceOnUse">
			<stop  offset="0" style="stop-color:#60A431"/>
			<stop  offset="0.2553" style="stop-color:#63A632"/>
			<stop  offset="0.4696" style="stop-color:#6EAB33"/>
			<stop  offset="0.669" style="stop-color:#7FB436"/>
			<stop  offset="0.8583" style="stop-color:#97C039"/>
			<stop  offset="1" style="stop-color:#AFCC3D"/>
		</radialGradient>
		<path class="st26" d="M152.54,80.91c-1.03,0.38-41.36,13.91-40.85,14.91c0.51,1,41.66-10.9,42.68-11.28
			c1.02-0.38,1.44-1.5,0.94-2.5C154.8,81.03,153.57,80.53,152.54,80.91z"/>
		
			<radialGradient id="SVGID_27_" cx="65.6328" cy="114.2852" r="17.4132" gradientTransform="matrix(0.9788 0 0 0.974 2.2315 5.0169)" gradientUnits="userSpaceOnUse">
			<stop  offset="0" style="stop-color:#60A431"/>
			<stop  offset="0.2553" style="stop-color:#63A632"/>
			<stop  offset="0.4696" style="stop-color:#6EAB33"/>
			<stop  offset="0.669" style="stop-color:#7FB436"/>
			<stop  offset="0.8583" style="stop-color:#97C039"/>
			<stop  offset="1" style="stop-color:#AFCC3D"/>
		</radialGradient>
		<path class="st27" d="M46.15,123.45c1.05-0.45,41.14-19.09,41.75-18.07c0.6,1.02-38.51,21.32-39.57,21.77
			c-1.05,0.44-2.4-0.02-2.99-1.04C44.73,125.09,45.1,123.9,46.15,123.45z"/>
		
			<radialGradient id="SVGID_28_" cx="133.2963" cy="80.0019" r="17.4172" gradientTransform="matrix(0.9788 0 0 0.974 2.2315 5.0169)" gradientUnits="userSpaceOnUse">
			<stop  offset="0" style="stop-color:#60A431"/>
			<stop  offset="0.2553" style="stop-color:#63A632"/>
			<stop  offset="0.4696" style="stop-color:#6EAB33"/>
			<stop  offset="0.669" style="stop-color:#7FB436"/>
			<stop  offset="0.8583" style="stop-color:#97C039"/>
			<stop  offset="1" style="stop-color:#AFCC3D"/>
		</radialGradient>
		<path class="st28" d="M150.56,72.2c-0.98,0.55-40.02,20.74-39.28,21.7c0.74,0.96,40.98-17.69,41.96-18.24
			c0.98-0.55,1.18-1.76,0.44-2.72C152.94,71.98,151.55,71.66,150.56,72.2z"/>
		
			<radialGradient id="SVGID_29_" cx="46.5266" cy="140.8856" r="22.4648" gradientTransform="matrix(0.9554 0.0172 0.0173 0.9612 17.3366 -7.0378)" gradientUnits="userSpaceOnUse">
			<stop  offset="0" style="stop-color:#60A431"/>
			<stop  offset="0.2553" style="stop-color:#63A632"/>
			<stop  offset="0.4696" style="stop-color:#6EAB33"/>
			<stop  offset="0.669" style="stop-color:#7FB436"/>
			<stop  offset="0.8583" style="stop-color:#97C039"/>
			<stop  offset="1" style="stop-color:#AFCC3D"/>
		</radialGradient>
		<path class="st29" d="M42.15,143.2c1.13-0.83,44.01-34.45,45.01-33.14c1,1.32-40.25,37.08-41.38,37.91
			c-1.13,0.82-2.87,0.42-3.87-0.9C40.91,145.75,41.02,144.02,42.15,143.2z"/>
		
			<radialGradient id="SVGID_30_" cx="121.6523" cy="78.4417" r="22.4668" gradientTransform="matrix(0.9554 0.0172 0.0173 0.9612 17.3366 -7.0378)" gradientUnits="userSpaceOnUse">
			<stop  offset="0" style="stop-color:#60A431"/>
			<stop  offset="0.2553" style="stop-color:#63A632"/>
			<stop  offset="0.4696" style="stop-color:#6EAB33"/>
			<stop  offset="0.669" style="stop-color:#7FB436"/>
			<stop  offset="0.8583" style="stop-color:#97C039"/>
			<stop  offset="1" style="stop-color:#AFCC3D"/>
		</radialGradient>
		<path class="st30" d="M153.06,51.84c-1.02,0.95-42.2,36.55-41.05,37.75c1.15,1.2,44.19-32.47,45.21-33.42
			c1.02-0.95,0.92-2.69-0.22-3.9C155.84,51.07,154.08,50.88,153.06,51.84z"/>
		
			<radialGradient id="SVGID_31_" cx="72.7454" cy="129.6908" r="19.263" gradientTransform="matrix(0.9788 0 0 0.974 2.2315 5.0169)" gradientUnits="userSpaceOnUse">
			<stop  offset="0" style="stop-color:#60A431"/>
			<stop  offset="0.2553" style="stop-color:#63A632"/>
			<stop  offset="0.4696" style="stop-color:#6EAB33"/>
			<stop  offset="0.669" style="stop-color:#7FB436"/>
			<stop  offset="0.8583" style="stop-color:#97C039"/>
			<stop  offset="1" style="stop-color:#AFCC3D"/>
		</radialGradient>
		<path class="st31" d="M56.99,147.57c0.85-0.92,32.38-37.65,33.41-36.66c1.02,0.99-28.86,39.32-29.7,40.23
			c-0.85,0.91-2.36,0.85-3.39-0.14C56.3,150.02,56.16,148.48,56.99,147.57z"/>
		
			<radialGradient id="SVGID_32_" cx="125.9315" cy="64.9835" r="19.2615" gradientTransform="matrix(0.9788 0 0 0.974 2.2315 5.0169)" gradientUnits="userSpaceOnUse">
			<stop  offset="0" style="stop-color:#60A431"/>
			<stop  offset="0.2553" style="stop-color:#63A632"/>
			<stop  offset="0.4696" style="stop-color:#6EAB33"/>
			<stop  offset="0.669" style="stop-color:#7FB436"/>
			<stop  offset="0.8583" style="stop-color:#97C039"/>
			<stop  offset="1" style="stop-color:#AFCC3D"/>
		</radialGradient>
		<path class="st32" d="M138,48.7c-0.74,1.01-30.58,39.2-29.46,40.05c1.13,0.86,32.81-35.93,33.53-36.95
			c0.74-1.01,0.41-2.53-0.71-3.38C140.24,47.57,138.73,47.69,138,48.7z"/>
		
			<radialGradient id="SVGID_33_" cx="79.768" cy="129.2344" r="17.1693" gradientTransform="matrix(0.9788 0 0 0.974 2.2315 5.0169)" gradientUnits="userSpaceOnUse">
			<stop  offset="0" style="stop-color:#60A431"/>
			<stop  offset="0.2553" style="stop-color:#63A632"/>
			<stop  offset="0.4696" style="stop-color:#6EAB33"/>
			<stop  offset="0.669" style="stop-color:#7FB436"/>
			<stop  offset="0.8583" style="stop-color:#97C039"/>
			<stop  offset="1" style="stop-color:#AFCC3D"/>
		</radialGradient>
		<path class="st33" d="M68.04,147.63c0.62-0.92,23.7-37.49,24.79-36.8c1.09,0.69-20.22,38.38-20.85,39.31
			c-0.63,0.91-2.02,1.1-3.11,0.41C67.79,149.85,67.42,148.54,68.04,147.63z"/>
		
			<radialGradient id="SVGID_34_" cx="118.7554" cy="65.5357" r="17.1643" gradientTransform="matrix(0.9788 0 0 0.974 2.2315 5.0169)" gradientUnits="userSpaceOnUse">
			<stop  offset="0" style="stop-color:#60A431"/>
			<stop  offset="0.2553" style="stop-color:#63A632"/>
			<stop  offset="0.4696" style="stop-color:#6EAB33"/>
			<stop  offset="0.669" style="stop-color:#7FB436"/>
			<stop  offset="0.8583" style="stop-color:#97C039"/>
			<stop  offset="1" style="stop-color:#AFCC3D"/>
		</radialGradient>
		<path class="st34" d="M126.6,49.81c-0.51,0.99-21.81,38.54-20.65,39.1c1.17,0.57,24.36-36.07,24.87-37.06
			c0.51-0.99-0.02-2.24-1.19-2.8C128.48,48.48,127.12,48.83,126.6,49.81z"/>
		
			<radialGradient id="SVGID_35_" cx="84.1456" cy="132.6546" r="17.5962" gradientTransform="matrix(0.9788 0 0 0.974 2.2315 5.0169)" gradientUnits="userSpaceOnUse">
			<stop  offset="0" style="stop-color:#60A431"/>
			<stop  offset="0.2553" style="stop-color:#63A632"/>
			<stop  offset="0.4696" style="stop-color:#6EAB33"/>
			<stop  offset="0.669" style="stop-color:#7FB436"/>
			<stop  offset="0.8583" style="stop-color:#97C039"/>
			<stop  offset="1" style="stop-color:#AFCC3D"/>
		</radialGradient>
		<path class="st35" d="M74.81,153.34c0.5-1.03,18.32-41.74,19.65-41.24c1.32,0.51-14.35,42.05-14.85,43.09
			c-0.51,1.03-1.98,1.45-3.31,0.94C74.98,155.63,74.32,154.37,74.81,153.34z"/>
		
			<radialGradient id="SVGID_36_" cx="114.3949" cy="62.3013" r="17.5906" gradientTransform="matrix(0.9788 0 0 0.974 2.2315 5.0169)" gradientUnits="userSpaceOnUse">
			<stop  offset="0" style="stop-color:#60A431"/>
			<stop  offset="0.2553" style="stop-color:#63A632"/>
			<stop  offset="0.4696" style="stop-color:#6EAB33"/>
			<stop  offset="0.669" style="stop-color:#7FB436"/>
			<stop  offset="0.8583" style="stop-color:#97C039"/>
			<stop  offset="1" style="stop-color:#AFCC3D"/>
		</radialGradient>
		<path class="st36" d="M119.04,44.97c-0.36,1.08-16.06,42.49-14.68,42.86c1.38,0.36,19.31-40.45,19.68-41.53
			c0.36-1.08-0.47-2.25-1.85-2.61C120.81,43.31,119.4,43.89,119.04,44.97z"/>
		
			<radialGradient id="SVGID_37_" cx="92.8886" cy="137.7361" r="18.6387" gradientTransform="matrix(0.9788 0 0 0.974 2.2315 5.0169)" gradientUnits="userSpaceOnUse">
			<stop  offset="0" style="stop-color:#60A431"/>
			<stop  offset="0.2553" style="stop-color:#63A632"/>
			<stop  offset="0.4696" style="stop-color:#6EAB33"/>
			<stop  offset="0.669" style="stop-color:#7FB436"/>
			<stop  offset="0.8583" style="stop-color:#97C039"/>
			<stop  offset="1" style="stop-color:#AFCC3D"/>
		</radialGradient>
		<path class="st37" d="M88.55,161.49c0.23-1.19,7.6-47.94,8.99-47.58c1.39,0.37-3.73,47.73-3.96,48.92
			c-0.24,1.19-1.55,1.86-2.94,1.49C89.26,163.95,88.32,162.69,88.55,161.49z"/>
		
			<radialGradient id="SVGID_38_" cx="105.606" cy="57.359" r="18.634" gradientTransform="matrix(0.9788 0 0 0.974 2.2315 5.0169)" gradientUnits="userSpaceOnUse">
			<stop  offset="0" style="stop-color:#60A431"/>
			<stop  offset="0.2553" style="stop-color:#63A632"/>
			<stop  offset="0.4696" style="stop-color:#6EAB33"/>
			<stop  offset="0.669" style="stop-color:#7FB436"/>
			<stop  offset="0.8583" style="stop-color:#97C039"/>
			<stop  offset="1" style="stop-color:#AFCC3D"/>
		</radialGradient>
		<path class="st38" d="M105.08,37.49c-0.09,1.23-5.25,48.43-3.84,48.65c1.41,0.2,8.86-46.67,8.95-47.89
			c0.09-1.23-0.98-2.39-2.39-2.59C106.39,35.45,105.17,36.28,105.08,37.49z"/>
	</g>
	<path class="st39" d="M73.41,96.64c0.07,0.3,5.23,0.72,5.65,0.77c0.55,0.06,4.72,0.18,4.97,1.21c0.06,0.64-4.73,0.98-4.65,1.56
		c0.06,0.26,3.96-0.29,4.24-0.33c0.92-0.1,1.87-0.59,2.13,0.37c-0.86,0.27-1.7,0.51-2.57,0.75c-0.57,0.18-8.16,2.21-8.09,2.49
		c0.16,0.64,5.67-1.12,5.87-0.47c0.08,0.33-1.06,0.8-2.21,1.27c-1.14,0.48-2.29,0.95-2.21,1.25c0.18,0.53,9.73-3.18,9.94-2.64
		c0.1,0.42-1.99,1.58-4.09,2.73c-2.09,1.15-4.19,2.31-4.1,2.69c0.12,0.25,5.5-2.22,5.95-2.41c0.72-0.29,1.65-0.89,2.44-0.94
		c0.38-0.03,0.73-0.02,1.12-0.09c0.28-0.05,0.39-0.02,0.41,0.06c0.02,0.11-0.12,0.31-0.27,0.52c-0.15,0.21-0.3,0.42-0.27,0.55
		c0.26,0.41,1.34-0.16,1.39,0.02c0.02,0.08-0.17,0.3-0.7,0.81c-0.16,0.15-1.91,1.64-1.84,1.91c0.32,0.43,1.85-1.1,2.19-0.71
		c0.11,0.13,0.18,0.27,0.21,0.4c0.14,0.56-0.4,1.08-0.74,1.49c-0.3,0.36-3.7,4.03-3.63,4.37c0.16,0.16,2.6-2.11,2.77-2.26
		c0.92-0.81,1.83-1.63,2.76-2.45c1.13-1,1.31-1.66,2.64-0.86c-0.22,0.3-3.26,4.18-3.19,4.49c0.47,0.36,3.27-4.41,4.31-3.87
		c-0.92,1.57-1.9,3.1-2.8,4.68c-0.21,0.37-0.84,2.22-0.7,2.81c0.02,0.07,0.05,0.13,0.1,0.15c0.21,0.14,4.25-6.17,4.82-7.05
		l-0.03,0.11c0.03,0.08,0.15,0.11,0.37,0.11c-0.35,0.78-4.43,9.08-4.34,9.47c0.53,0.27,4.5-8.58,5.04-8.35
		c0.13,0.45-0.9,3.01-1.93,5.58c-1.04,2.57-2.08,5.13-2,5.5c1.05,0.44,4.75-9.23,4.82-9.2c0.07,0.02,0.11,0.09,0.15,0.2
		c0.1,0.4-0.07,1.35-0.23,2.3c-0.17,0.95-0.33,1.9-0.24,2.28c0.03,0.11,0.06,0.18,0.13,0.19c0.78,0.2,2.14-5.87,2.95-5.73
		c0.05,0.01,0.08,0.06,0.1,0.15c0.13,0.53-0.07,2.35-0.27,4.14c-0.2,1.8-0.39,3.6-0.27,4.11c0.02,0.08,0.06,0.14,0.1,0.14
		c0.59,0.06,0.91-6.12,1.52-6.09c0.06,0,0.1,0.09,0.14,0.25c0.18,0.75,0.16,3.04,0.13,5.33c-0.02,2.29-0.04,4.58,0.12,5.28
		c0.04,0.14,0.07,0.21,0.12,0.21c0.5,0.01,0.12-8.63,0.65-8.65c0.25-0.01,0.44,0.53,0.61,1.23c0.08,0.3,0.14,0.63,0.21,0.96
		c0.07,0.34,0.14,0.68,0.21,0.99c0.17,0.67,0.35,1.18,0.6,1.17c0.59-0.05-0.29-6.09,0.32-6.17c0.11-0.01,0.19,0.18,0.26,0.48
		c0.08,0.32,0.14,0.75,0.2,1.18c0.06,0.44,0.13,0.88,0.2,1.19c0.07,0.28,0.15,0.47,0.26,0.44c1.04-0.2-0.57-7.4,0.47-7.73
		c0.68-0.22,5.12,12.72,5.74,12.47c0.13-0.04,0.11-0.34,0-0.79c-0.19-0.75-0.61-1.92-1.05-3.1c-0.43-1.19-0.87-2.38-1.06-3.14
		c-0.11-0.46-0.13-0.76-0.01-0.82c0.69-0.33,4.57,7.4,5.22,7.03c0.03-0.01,0.04-0.07,0.01-0.18c-0.15-0.62-1.37-2.75-2.6-4.89
		c-1.23-2.15-2.46-4.31-2.61-4.96c-0.03-0.1-0.03-0.17,0.01-0.19c0.5-0.32,5.45,7.14,5.91,6.82c-0.15-0.64-6.03-8.7-6.52-9.38
		c1.78-0.47,1.96-0.09,3.3,1.06c1.12,0.96,2.25,1.93,3.37,2.89c0.22,0.19,3.68,3.15,3.76,3.05c-0.18-0.83-7.02-7.15-7.67-7.82
		c0.98-0.33,10.76,6.28,10.83,6.14c0.02-0.06,0.03-0.11,0.01-0.18c-0.15-0.63-2.13-1.94-4.1-3.25c-1.97-1.32-3.95-2.64-4.11-3.3
		c-0.02-0.06-0.02-0.13,0.01-0.18c0.18-0.39,8.44,3.42,8.61,3.01c-0.04-0.19-6.22-3.47-7.08-3.86c0.81-0.36,1.41-0.34,1.22-1.08
		l-0.03-0.13c0.46,0.13,7.13,1.85,7.61,1.94c-0.29-0.08-2.74-1.26-2.9-1.33c-0.97-0.42-1.95-0.84-2.92-1.27
		c-1.56-0.69-2.26-0.81-2.89-2.39c0.32,0.12,3.88,1.68,4.03,1.37c-0.05-0.32-0.66-0.69-1.28-1.07c-0.62-0.37-1.25-0.76-1.3-0.99
		c0.25-0.56,5.89,2.4,6.09,1.95c-0.06-0.33-1.99-1.28-3.92-2.22c-1.93-0.94-3.86-1.87-3.92-2.15c0.3-0.69,11.17,3,11.26,2.62
		c-0.09-0.38-1.46-1.6-1.76-1.7c-1.09-0.34-2.24-0.53-3.36-0.76c-0.6-0.13-6.48-0.82-6.73-1.87c0.01-0.62,4.66-1.09,5-1.13
		c0.47-0.05,6.5-0.62,6.47-0.88c-0.06-0.26-4.69-0.01-5.05-0.01c-0.4,0.01-4.68,0.24-4.85-0.45c-0.03-0.17,4.17-2.53,4.51-2.73
		c0.48-0.27,6.15-3.16,6.06-3.51c-0.38-0.94-11.79,5.48-12.72,3.76c-0.07-0.27,0.64-0.72,1.34-1.18c0.71-0.45,1.41-0.9,1.35-1.13
		c-0.3-0.51-2.49,1.15-2.81,0.7c-0.07-0.28,0.91-1.04,1.91-1.8c0.99-0.77,1.98-1.53,1.92-1.78c-0.35-0.45-5.69,4.24-6.06,3.8
		c-0.11-0.42,5.01-5.28,5.48-5.89c0.44-0.56,3.89-5.39,3.83-5.64c-0.47-0.44-7.52,7.68-8.03,7.24c-0.12-0.39,0.5-1.29,1.13-2.2
		c0.63-0.9,1.24-1.8,1.17-2.11c-0.45-0.39-4.83,5.88-5.27,5.57c-0.11-0.08-0.19-0.2-0.21-0.34c-0.21-0.86,0.88-2.73,2.01-4.5
		c1.13-1.76,2.27-3.42,2.16-3.87l-0.06-0.09c-0.46-0.28-2.88,4.28-3.37,4.02c-0.13-0.43,0.72-2.23,1.57-4.03
		c0.84-1.79,1.69-3.59,1.61-3.96c-0.69-0.39-5.57,9.96-6.26,9.65c-0.05-0.02-0.09-0.07-0.1-0.14c-0.06-0.26,0.09-0.8,0.24-1.33
		c0.16-0.53,0.31-1.05,0.25-1.31c-0.02-0.08-0.06-0.13-0.12-0.15c-0.18-0.06-2.27,5.79-2.51,6.34c-0.33-0.17-0.51-0.4-0.57-0.65
		c-0.17-0.71,0.46-1.66,0.74-2.55c0.02-0.1,0.57-1.7,0.52-1.93c-0.62-0.19-1.68,4.09-2.3,3.94c-0.17-0.55,0.38-3.16,0.95-5.75
		c0.55-2.6,1.1-5.19,0.99-5.66c-0.56-0.18-2.55,11.17-3.08,11.09c-0.04-0.01-0.08-0.07-0.1-0.15c-0.12-0.49,0.06-2.13,0.26-3.76
		c0.19-1.63,0.38-3.25,0.27-3.74c-0.02-0.09-0.05-0.14-0.1-0.14c-0.27-0.04-1.44,7.08-1.64,7.79c-0.07-0.01-0.12-0.11-0.16-0.27
		c-0.22-0.93,0.08-4.01,0.38-7.02c0.32-3.01,0.65-5.95,0.48-6.62c-0.02-0.09-0.05-0.14-0.1-0.15c-0.41-0.03-1.54,6.85-1.66,7.44
		c-0.09,0.44-1.25,6-1.5,6.01c-0.03,0-0.06-0.05-0.08-0.14c-0.15-0.63-0.3-3.21-0.46-5.77c-0.15-2.55-0.3-5.1-0.45-5.68
		c-0.02-0.09-0.03-0.13-0.06-0.13c-0.49,0.05-0.33,10.31-0.35,11.22l0.02,0.11c0.11,0.44-0.07,0.57-0.55,0.41
		c-0.5,0.01-0.62-0.15-0.69-0.46c-0.02-0.06-0.03-0.14-0.04-0.23c-0.02-0.06-0.04-0.13-0.05-0.2c-0.02-0.07-0.04-0.14-0.05-0.22
		c-0.36-1.23-0.7-2.47-1.06-3.7c-0.08-0.29-1.21-4.61-1.44-4.54c-0.3,0.08,1.83,8.62,1.98,9.43c-0.63,0.05-1.8,0.64-2.11,0
		c-0.25-0.52-0.5-1.05-0.74-1.57c-0.69-1.49-1.37-2.98-2.04-4.47c-0.17-0.36-2.45-5.57-2.68-5.48c-0.08,0.04-0.07,0.24,0,0.56
		c0.2,0.8,0.82,2.36,1.45,3.92c0.62,1.56,1.25,3.12,1.45,3.94c0.08,0.34,0.09,0.56,0,0.59c-0.59,0.28-4.58-7.84-5.13-7.54
		c-0.06,0.03-0.06,0.15-0.02,0.31c0.14,0.62,0.9,2.05,1.66,3.49c0.75,1.43,1.5,2.87,1.66,3.51c0.04,0.18,0.03,0.29-0.03,0.34
		c-0.17,0.1-6.45-6.86-6.49-6.99c-0.1,0.17-0.1,0.39-0.04,0.64c0.27,1.1,1.81,2.89,3.32,4.53c1.5,1.63,2.96,3.09,3.06,3.52
		l-0.01,0.1c-0.36,0.34-1.43-0.61-1.75-0.13c0.07,0.35,2.9,2.28,3.13,2.46c-0.8,0.5-9.84-6.03-9.98-5.77l0,0.11
		c0.15,0.62,2.72,2.87,3,3.17c0.35,0.34,2.41,2.2,2.65,3.18c0.03,0.12,0.03,0.24-0.02,0.33c-0.24,0.52-2.3-0.6-2.51-0.13
		c-0.03,0.08-0.03,0.15-0.02,0.22c0.07,0.29,0.48,0.57,0.87,0.81c0.4,0.24,0.79,0.45,0.82,0.6c-0.16,0.29-1.43-0.51-1.74,0
		c0.02,0.08,0.25,0.25,0.47,0.41c0.22,0.15,0.44,0.29,0.44,0.29c0.71,0.48,1.66,0.75,1.82,1.4c0.05,0.17,0.03,0.37-0.05,0.59
		c-0.25-0.11-3.63-1.79-3.74-1.58c0.04,0.23,0.79,0.71,1.55,1.29c0.77,0.57,1.57,1.25,1.71,1.84c0.02,0.1,0.03,0.19,0.02,0.28
		c-0.59-0.11-6.2-1.91-6.27-1.68c0.07,0.31,1.39,0.71,2.72,1.11c1.33,0.4,2.66,0.8,2.72,1.05C84.59,97.32,73.44,95.99,73.41,96.64z"
		/>
	<g>
		<g>
			<path class="st40" d="M68.98,87.84c1.38,0.73,2.1,2.05,1.63,2.93c-0.48,0.89-1.98,1.02-3.35,0.3c-1.38-0.74-2.1-2.05-1.62-2.94
				C66.11,87.24,67.6,87.11,68.98,87.84z"/>
			<path class="st41" d="M67.71,88.05c0.39,0.21,0.57,0.62,0.41,0.91c-0.16,0.3-0.6,0.38-0.98,0.17c-0.39-0.2-0.57-0.61-0.42-0.91
				C66.88,87.92,67.32,87.85,67.71,88.05z"/>
		</g>
		<g>
			<path class="st40" d="M61.09,95.17c-1.5-0.43-2.5-1.55-2.22-2.52c0.27-0.97,1.71-1.42,3.21-1c1.5,0.42,2.5,1.54,2.23,2.52
				C64.03,95.14,62.59,95.58,61.09,95.17z"/>
			<path class="st41" d="M62.28,94.68c-0.42-0.11-0.68-0.48-0.59-0.79c0.09-0.33,0.5-0.5,0.92-0.39c0.43,0.13,0.69,0.48,0.6,0.81
				C63.12,94.63,62.71,94.8,62.28,94.68z"/>
		</g>
		<g>
			<path class="st40" d="M69.97,79.31c1.18,1,1.61,2.44,0.95,3.21c-0.66,0.77-2.15,0.57-3.34-0.43c-1.19-1.01-1.61-2.45-0.95-3.21
				C67.29,78.11,68.78,78.3,69.97,79.31z"/>
			<path class="st41" d="M68.68,79.25c0.34,0.28,0.42,0.72,0.21,0.98c-0.22,0.25-0.67,0.23-1-0.06c-0.33-0.28-0.42-0.72-0.2-0.97
				C67.9,78.94,68.34,78.96,68.68,79.25z"/>
		</g>
		<g>
			<path class="st40" d="M73.95,73.32c0.94,1.24,1.04,2.74,0.23,3.34c-0.81,0.61-2.23,0.09-3.16-1.15
				c-0.94-1.24-1.04-2.74-0.22-3.35C71.6,71.56,73.01,72.08,73.95,73.32z"/>
			<path class="st41" d="M72.71,72.98c0.26,0.34,0.25,0.79-0.02,1c-0.27,0.2-0.7,0.08-0.96-0.27c-0.26-0.35-0.25-0.79,0.02-0.99
				C72,72.51,72.44,72.63,72.71,72.98z"/>
		</g>
		<g>
			<path class="st40" d="M68.76,81.47c-1.32-0.82-1.95-2.2-1.41-3.04c0.55-0.86,2.05-0.87,3.37-0.05c1.32,0.82,1.95,2.19,1.41,3.05
				C71.58,82.29,70.08,82.31,68.76,81.47z"/>
			<path class="st41" d="M70.04,81.35c-0.37-0.23-0.52-0.65-0.34-0.93c0.18-0.29,0.62-0.33,0.99-0.09c0.37,0.23,0.52,0.65,0.34,0.93
				C70.86,81.55,70.42,81.58,70.04,81.35z"/>
		</g>
		<g>
			<path class="st40" d="M73.98,58.15c1.01,1.18,1.21,2.67,0.44,3.33c-0.77,0.65-2.22,0.23-3.23-0.95
				c-1.01-1.18-1.21-2.67-0.44-3.33C71.52,56.56,72.97,56.98,73.98,58.15z"/>
			<path class="st41" d="M72.72,57.9c0.28,0.33,0.3,0.77,0.05,0.99c-0.26,0.22-0.7,0.13-0.99-0.2c-0.28-0.33-0.3-0.77-0.05-0.99
				C71.99,57.48,72.43,57.57,72.72,57.9z"/>
		</g>
		<g>
			<path class="st40" d="M73.46,72.62c-1.15-1.05-1.52-2.5-0.83-3.25c0.68-0.74,2.17-0.5,3.31,0.55c1.15,1.05,1.52,2.5,0.84,3.25
				C76.09,73.91,74.6,73.66,73.46,72.62z"/>
			<path class="st41" d="M74.74,72.72c-0.32-0.3-0.4-0.74-0.17-0.99c0.23-0.24,0.68-0.21,1,0.09c0.32,0.29,0.4,0.73,0.17,0.98
				C75.51,73.06,75.07,73.02,74.74,72.72z"/>
		</g>
		<g>
			<path class="st40" d="M72.19,67.38c-0.82-1.32-0.79-2.82,0.06-3.35c0.87-0.53,2.24,0.1,3.06,1.42c0.82,1.32,0.8,2.82-0.06,3.35
				C74.39,69.33,73.02,68.69,72.19,67.38z"/>
			<path class="st41" d="M73.41,67.82c-0.24-0.37-0.19-0.81,0.1-0.99c0.29-0.18,0.71-0.03,0.94,0.34c0.23,0.37,0.18,0.82-0.1,1
				C74.06,68.35,73.64,68.18,73.41,67.82z"/>
		</g>
		<g>
			<path class="st40" d="M70.75,57.27c-0.67-1.4-0.48-2.88,0.44-3.32c0.91-0.44,2.2,0.34,2.87,1.74c0.68,1.4,0.48,2.89-0.44,3.32
				C72.72,59.45,71.43,58.67,70.75,57.27z"/>
			<path class="st41" d="M71.91,57.85c-0.19-0.39-0.1-0.82,0.21-0.97c0.31-0.15,0.71,0.05,0.9,0.45c0.19,0.39,0.1,0.83-0.22,0.97
				C72.5,58.44,72.1,58.24,71.91,57.85z"/>
		</g>
		<g>
			<path class="st40" d="M78.55,73.26c-0.65-1.41-0.41-2.89,0.5-3.31c0.92-0.42,2.2,0.38,2.84,1.79c0.64,1.41,0.42,2.9-0.5,3.32
				C80.47,75.48,79.2,74.68,78.55,73.26z"/>
			<path class="st41" d="M79.7,73.86c-0.19-0.39-0.08-0.83,0.23-0.97c0.3-0.14,0.7,0.07,0.88,0.47c0.18,0.39,0.08,0.82-0.23,0.97
				C80.27,74.46,79.88,74.26,79.7,73.86z"/>
		</g>
		<g>
			<path class="st40" d="M96.08,64.37c0.35,1.52-0.17,2.92-1.17,3.15c-0.99,0.23-2.07-0.82-2.41-2.33
				c-0.34-1.51,0.17-2.92,1.17-3.15C94.66,61.81,95.74,62.86,96.08,64.37z"/>
			<path class="st41" d="M95.08,63.56c0.1,0.43-0.09,0.83-0.42,0.9c-0.34,0.08-0.68-0.21-0.77-0.63c-0.1-0.42,0.09-0.83,0.42-0.9
				C94.64,62.86,94.98,63.14,95.08,63.56z"/>
		</g>
		<g>
			<path class="st40" d="M83.98,73.48c-0.42-1.49,0.03-2.93,1.01-3.21c0.98-0.27,2.11,0.72,2.54,2.21c0.42,1.5-0.03,2.92-1,3.2
				C85.54,75.96,84.4,74.97,83.98,73.48z"/>
			<path class="st41" d="M85.02,74.24c-0.12-0.42,0.05-0.83,0.38-0.93c0.32-0.09,0.69,0.18,0.8,0.6c0.12,0.42-0.05,0.83-0.38,0.93
				C85.5,74.92,85.14,74.66,85.02,74.24z"/>
		</g>
		<g>
			<path class="st40" d="M101.84,54.98c-0.06,1.55-0.94,2.77-1.95,2.73c-1.02-0.04-1.79-1.32-1.72-2.87
				c0.07-1.55,0.94-2.77,1.96-2.73C101.13,52.14,101.9,53.43,101.84,54.98z"/>
			<path class="st41" d="M101.09,53.93c-0.02,0.44-0.31,0.78-0.65,0.76c-0.34-0.01-0.6-0.38-0.58-0.81
				c0.02-0.44,0.31-0.78,0.64-0.76C100.85,53.13,101.11,53.5,101.09,53.93z"/>
		</g>
		<g>
			<path class="st40" d="M91.9,67.97c-0.12-1.55,0.62-2.86,1.62-2.94c1.01-0.07,1.93,1.12,2.04,2.67c0.12,1.55-0.62,2.87-1.62,2.94
				C92.92,70.71,92.01,69.52,91.9,67.97z"/>
			<path class="st41" d="M92.76,68.93c-0.03-0.44,0.22-0.81,0.56-0.83c0.33-0.03,0.63,0.3,0.67,0.74c0.03,0.43-0.21,0.8-0.55,0.82
				C93.1,69.7,92.79,69.37,92.76,68.93z"/>
		</g>
		<g>
			<path class="st40" d="M106.93,58.46c-0.28,1.52-1.31,2.62-2.31,2.44c-1-0.18-1.58-1.56-1.31-3.08c0.27-1.52,1.31-2.62,2.31-2.44
				C106.61,55.54,107.2,56.92,106.93,58.46z"/>
			<path class="st41" d="M106.32,57.32c-0.08,0.43-0.41,0.72-0.74,0.67c-0.33-0.06-0.54-0.46-0.46-0.89
				c0.08-0.43,0.41-0.72,0.74-0.66C106.2,56.49,106.4,56.89,106.32,57.32z"/>
		</g>
		<g>
			<path class="st40" d="M95.02,63.47c0.15-1.54,1.09-2.71,2.1-2.61c1.01,0.09,1.7,1.43,1.56,2.97c-0.15,1.54-1.1,2.72-2.11,2.61
				C95.56,66.34,94.86,65.02,95.02,63.47z"/>
			<path class="st41" d="M95.7,64.56c0.05-0.44,0.35-0.76,0.68-0.73c0.34,0.04,0.58,0.41,0.54,0.85c-0.04,0.43-0.35,0.76-0.69,0.72
				C95.9,65.36,95.66,64.99,95.7,64.56z"/>
		</g>
		<g>
			<path class="st40" d="M110.86,70.51c-0.29,1.52-1.33,2.61-2.33,2.42c-0.99-0.18-1.57-1.57-1.29-3.09
				c0.29-1.53,1.33-2.61,2.33-2.43C110.57,67.61,111.14,68.99,110.86,70.51z"/>
			<path class="st41" d="M110.26,69.37c-0.08,0.43-0.41,0.73-0.75,0.66c-0.33-0.06-0.54-0.46-0.45-0.89
				c0.08-0.43,0.42-0.72,0.74-0.66C110.14,68.54,110.34,68.94,110.26,69.37z"/>
		</g>
		<g>
			<path class="st40" d="M97.58,65.27c0.17-1.55,1.12-2.71,2.13-2.6c1.01,0.11,1.7,1.44,1.53,2.99c-0.17,1.54-1.12,2.7-2.13,2.6
				C98.1,68.14,97.41,66.81,97.58,65.27z"/>
			<path class="st41" d="M98.25,66.36c0.05-0.43,0.36-0.76,0.7-0.72c0.33,0.04,0.56,0.42,0.52,0.85c-0.04,0.43-0.35,0.76-0.69,0.72
				C98.44,67.17,98.21,66.79,98.25,66.36z"/>
		</g>
		<g>
			<path class="st40" d="M114.37,55.17c-0.65,1.41-1.93,2.21-2.85,1.79c-0.92-0.42-1.14-1.91-0.49-3.31
				c0.65-1.42,1.93-2.21,2.84-1.79C114.79,52.28,115.02,53.76,114.37,55.17z"/>
			<path class="st41" d="M114.07,53.92c-0.18,0.41-0.57,0.61-0.89,0.47c-0.3-0.14-0.41-0.58-0.22-0.97c0.18-0.39,0.58-0.6,0.89-0.46
				C114.15,53.09,114.25,53.53,114.07,53.92z"/>
		</g>
		<g>
			<path class="st40" d="M114.97,73.87c-0.62,1.43-1.88,2.26-2.8,1.85c-0.93-0.39-1.19-1.88-0.57-3.3c0.61-1.43,1.87-2.26,2.8-1.86
				C115.33,70.96,115.59,72.44,114.97,73.87z"/>
			<path class="st41" d="M114.65,72.62c-0.18,0.41-0.57,0.62-0.88,0.49c-0.31-0.14-0.42-0.57-0.25-0.97
				c0.17-0.39,0.57-0.62,0.88-0.48C114.71,71.79,114.82,72.22,114.65,72.62z"/>
		</g>
		<g>
			<path class="st40" d="M117.52,80.75c-0.56,1.45-1.78,2.34-2.73,1.98c-0.94-0.37-1.26-1.84-0.72-3.28
				c0.56-1.45,1.78-2.33,2.73-1.98C117.76,77.84,118.08,79.3,117.52,80.75z"/>
			<path class="st41" d="M117.14,79.52c-0.16,0.41-0.54,0.63-0.85,0.52c-0.32-0.12-0.45-0.55-0.29-0.95
				c0.16-0.41,0.54-0.64,0.85-0.52C117.17,78.68,117.3,79.11,117.14,79.52z"/>
		</g>
		<g>
			<path class="st40" d="M122.5,70.51c-0.81,1.32-2.17,1.97-3.04,1.44c-0.86-0.53-0.91-2.03-0.1-3.35c0.81-1.32,2.18-1.97,3.04-1.44
				C123.28,67.68,123.32,69.18,122.5,70.51z"/>
			<path class="st41" d="M122.36,69.23c-0.23,0.38-0.64,0.53-0.93,0.36c-0.29-0.17-0.34-0.62-0.11-0.99
				c0.23-0.37,0.65-0.53,0.94-0.36C122.54,68.42,122.59,68.86,122.36,69.23z"/>
		</g>
		<g>
			<path class="st40" d="M119.84,53.33c-0.26-1.53,0.35-2.91,1.35-3.07c1-0.17,2.02,0.94,2.28,2.47c0.25,1.53-0.36,2.9-1.36,3.07
				C121.11,55.96,120.09,54.86,119.84,53.33z"/>
			<path class="st41" d="M120.79,54.2c-0.08-0.43,0.14-0.82,0.47-0.88c0.33-0.06,0.66,0.25,0.74,0.68c0.08,0.43-0.14,0.82-0.47,0.88
				C121.18,54.94,120.85,54.63,120.79,54.2z"/>
		</g>
		<g>
			<path class="st40" d="M130.1,68.94c-0.9,1.28-2.29,1.83-3.13,1.25c-0.83-0.57-0.78-2.08,0.11-3.34c0.89-1.28,2.29-1.84,3.12-1.26
				C131.04,66.18,130.98,67.67,130.1,68.94z"/>
			<path class="st41" d="M130.03,67.66c-0.26,0.36-0.68,0.49-0.96,0.29c-0.27-0.19-0.29-0.63-0.04-0.99
				c0.25-0.36,0.68-0.48,0.96-0.3C130.26,66.86,130.28,67.31,130.03,67.66z"/>
		</g>
		<g>
			<path class="st40" d="M126.87,77.27c-1.01,1.18-2.46,1.61-3.23,0.95c-0.77-0.66-0.58-2.15,0.43-3.32
				c1.01-1.18,2.45-1.61,3.23-0.95C128.07,74.61,127.88,76.1,126.87,77.27z"/>
			<path class="st41" d="M126.93,75.99c-0.29,0.34-0.73,0.43-0.99,0.21c-0.25-0.22-0.23-0.67,0.05-1c0.28-0.33,0.72-0.42,0.98-0.2
				C127.23,75.22,127.21,75.66,126.93,75.99z"/>
		</g>
		<g>
			<path class="st40" d="M136.92,73.2c-1.09,1.11-2.57,1.44-3.29,0.73c-0.72-0.71-0.43-2.18,0.66-3.29
				c1.09-1.11,2.56-1.43,3.28-0.72C138.3,70.62,138,72.1,136.92,73.2z"/>
			<path class="st41" d="M137.06,71.93c-0.31,0.31-0.75,0.37-1,0.13c-0.24-0.23-0.19-0.67,0.12-0.98c0.31-0.32,0.75-0.38,0.99-0.14
				C137.42,71.18,137.37,71.61,137.06,71.93z"/>
		</g>
		<g>
			<path class="st40" d="M128.16,72.46c1.09-1.1,2.57-1.42,3.3-0.71c0.72,0.71,0.41,2.18-0.69,3.28c-1.1,1.1-2.57,1.42-3.29,0.71
				C126.76,75.04,127.07,73.56,128.16,72.46z"/>
			<path class="st41" d="M128,73.74c0.31-0.31,0.76-0.38,1-0.14c0.24,0.24,0.18,0.69-0.12,0.99c-0.31,0.3-0.76,0.37-1,0.13
				C127.65,74.5,127.7,74.05,128,73.74z"/>
		</g>
		<g>
			<path class="st40" d="M139.01,83.39c-1.26,0.89-2.77,0.95-3.36,0.13c-0.58-0.82-0.03-2.22,1.25-3.12
				c1.27-0.89,2.79-0.95,3.36-0.11C140.85,81.1,140.29,82.49,139.01,83.39z"/>
			<path class="st41" d="M139.4,82.16c-0.36,0.25-0.81,0.23-1-0.05c-0.19-0.27-0.06-0.7,0.3-0.96c0.36-0.24,0.81-0.23,1,0.05
				C139.88,81.48,139.75,81.91,139.4,82.16z"/>
		</g>
		<g>
			<path class="st40" d="M127.94,80.44c1.29-0.88,2.79-0.92,3.37-0.09c0.58,0.83,0,2.22-1.28,3.11c-1.28,0.88-2.79,0.91-3.37,0.09
				C126.09,82.7,126.66,81.32,127.94,80.44z"/>
			<path class="st41" d="M127.55,81.67c0.36-0.25,0.8-0.23,1,0.05c0.19,0.28,0.05,0.7-0.31,0.95c-0.36,0.25-0.81,0.22-1-0.05
				C127.05,82.33,127.19,81.91,127.55,81.67z"/>
		</g>
		<g>
			<path class="st40" d="M144.59,88.56c-1.44,0.61-2.91,0.35-3.32-0.58c-0.39-0.93,0.44-2.17,1.87-2.79
				c1.43-0.61,2.91-0.35,3.32,0.58C146.85,86.7,146.02,87.95,144.59,88.56z"/>
			<path class="st41" d="M145.21,87.43c-0.4,0.18-0.84,0.06-0.97-0.25c-0.13-0.31,0.09-0.7,0.49-0.87c0.41-0.17,0.84-0.06,0.97,0.25
				C145.83,86.87,145.61,87.26,145.21,87.43z"/>
		</g>
		<g>
			<path class="st40" d="M135.66,85.21c1.35-0.78,2.86-0.7,3.36,0.18c0.51,0.87-0.17,2.21-1.53,2.99c-1.35,0.77-2.85,0.69-3.36-0.18
				C133.63,87.32,134.31,85.98,135.66,85.21z"/>
			<path class="st41" d="M135.17,86.39c0.38-0.21,0.82-0.16,1,0.14c0.17,0.29,0,0.7-0.38,0.93c-0.38,0.21-0.82,0.16-0.99-0.14
				C134.62,87.03,134.79,86.61,135.17,86.39z"/>
		</g>
		<g>
			<path class="st40" d="M149.76,87.81c1.54-0.22,2.9,0.44,3.03,1.44c0.14,1-1.01,1.98-2.55,2.18c-1.55,0.21-2.91-0.43-3.04-1.44
				C147.06,88.98,148.21,88.01,149.76,87.81z"/>
			<path class="st41" d="M148.85,88.72c0.43-0.06,0.82,0.16,0.87,0.5c0.04,0.34-0.27,0.65-0.71,0.71c-0.44,0.06-0.82-0.16-0.87-0.5
				C148.1,89.09,148.41,88.77,148.85,88.72z"/>
		</g>
		<g>
			<path class="st40" d="M133.21,90.4c1.53-0.3,2.93,0.25,3.13,1.24c0.2,0.99-0.88,2.04-2.41,2.34c-1.53,0.31-2.93-0.25-3.13-1.24
				C130.6,91.75,131.68,90.71,133.21,90.4z"/>
			<path class="st41" d="M132.36,91.38c0.43-0.09,0.83,0.12,0.9,0.44c0.06,0.32-0.23,0.67-0.66,0.74c-0.43,0.09-0.83-0.1-0.89-0.44
				C131.64,91.8,131.93,91.46,132.36,91.38z"/>
		</g>
		<g>
			<path class="st40" d="M147.02,109.15c-1.02-1.17-1.22-2.66-0.45-3.33c0.77-0.66,2.22-0.24,3.23,0.93
				c1.02,1.18,1.23,2.67,0.46,3.32C149.49,110.73,148.04,110.32,147.02,109.15z"/>
			<path class="st41" d="M148.29,109.4c-0.29-0.33-0.31-0.77-0.06-1c0.25-0.22,0.69-0.13,0.98,0.2c0.29,0.33,0.31,0.78,0.06,0.99
				C149.02,109.81,148.58,109.72,148.29,109.4z"/>
		</g>
		<g>
			<path class="st40" d="M134.34,111.39c-1.41-0.69-2.17-1.97-1.72-2.88c0.45-0.91,1.95-1.09,3.34-0.4
				c1.39,0.69,2.16,1.98,1.72,2.88C137.23,111.9,135.73,112.08,134.34,111.39z"/>
			<path class="st41" d="M135.6,111.13c-0.39-0.19-0.59-0.59-0.44-0.89c0.15-0.3,0.59-0.39,0.98-0.19c0.4,0.18,0.59,0.59,0.44,0.89
				C136.43,111.24,135.99,111.33,135.6,111.13z"/>
		</g>
		<g>
			<path class="st40" d="M140,98.94c1.45,0.58,2.3,1.82,1.91,2.75c-0.39,0.94-1.87,1.22-3.31,0.63c-1.44-0.59-2.3-1.82-1.92-2.76
				C137.07,98.63,138.55,98.35,140,98.94z"/>
			<path class="st41" d="M138.75,99.28c0.41,0.16,0.63,0.55,0.51,0.87c-0.13,0.31-0.56,0.43-0.97,0.26
				c-0.41-0.16-0.63-0.55-0.5-0.87C137.91,99.24,138.35,99.12,138.75,99.28z"/>
		</g>
		<g>
			<path class="st40" d="M128.37,112.72c-0.9-1.27-0.97-2.77-0.14-3.36c0.83-0.58,2.23-0.03,3.14,1.23c0.9,1.26,0.96,2.77,0.13,3.35
				C130.67,114.52,129.27,113.97,128.37,112.72z"/>
			<path class="st41" d="M129.6,113.09c-0.25-0.36-0.24-0.81,0.04-1c0.28-0.19,0.71-0.06,0.96,0.3c0.25,0.35,0.24,0.79-0.04,0.99
				C130.29,113.57,129.86,113.43,129.6,113.09z"/>
		</g>
		<g>
			<path class="st40" d="M144.43,115.51c0.49-1.47,1.67-2.4,2.64-2.09c0.96,0.32,1.34,1.78,0.85,3.25c-0.5,1.47-1.68,2.4-2.64,2.09
				C144.31,118.43,143.93,116.98,144.43,115.51z"/>
			<path class="st41" d="M144.86,116.73c0.14-0.41,0.51-0.66,0.83-0.56c0.32,0.1,0.47,0.52,0.33,0.94
				c-0.14,0.42-0.52,0.67-0.84,0.56C144.86,117.55,144.72,117.14,144.86,116.73z"/>
		</g>
		<g>
			<path class="st40" d="M129.82,111.6c1.08-1.12,2.55-1.46,3.28-0.77c0.73,0.7,0.45,2.18-0.63,3.3c-1.07,1.13-2.54,1.46-3.27,0.77
				C128.46,114.19,128.74,112.72,129.82,111.6z"/>
			<path class="st41" d="M129.69,112.87c0.31-0.31,0.74-0.38,0.99-0.14c0.24,0.23,0.19,0.67-0.11,0.99
				c-0.3,0.31-0.75,0.38-0.99,0.14C129.34,113.63,129.39,113.19,129.69,112.87z"/>
		</g>
		<g>
			<path class="st40" d="M137.21,113.78c1.44,0.58,2.31,1.81,1.92,2.74c-0.38,0.93-1.86,1.23-3.3,0.64
				c-1.44-0.57-2.31-1.81-1.93-2.75C134.28,113.48,135.76,113.19,137.21,113.78z"/>
			<path class="st41" d="M135.96,114.13c0.41,0.17,0.63,0.55,0.51,0.87c-0.13,0.31-0.56,0.43-0.96,0.26
				c-0.41-0.16-0.63-0.54-0.51-0.86C135.13,114.09,135.56,113.97,135.96,114.13z"/>
		</g>
		<g>
			<path class="st40" d="M136.69,133.62c-1.24-0.94-1.75-2.36-1.14-3.16c0.61-0.8,2.11-0.7,3.36,0.24c1.24,0.93,1.76,2.35,1.14,3.15
				C139.43,134.66,137.93,134.55,136.69,133.62z"/>
			<path class="st41" d="M137.98,133.6c-0.35-0.26-0.47-0.69-0.27-0.97c0.2-0.27,0.66-0.27,1-0.01c0.35,0.27,0.47,0.7,0.26,0.96
				C138.78,133.86,138.33,133.86,137.98,133.6z"/>
		</g>
		<g>
			<path class="st40" d="M125.18,114.26c1.49,0.46,2.46,1.61,2.15,2.58c-0.3,0.96-1.75,1.37-3.24,0.91
				c-1.48-0.46-2.45-1.62-2.16-2.58C122.24,114.21,123.7,113.8,125.18,114.26z"/>
			<path class="st41" d="M123.98,114.71c0.42,0.13,0.68,0.49,0.57,0.81c-0.1,0.32-0.52,0.48-0.94,0.35
				c-0.42-0.13-0.68-0.5-0.58-0.81C123.14,114.74,123.56,114.58,123.98,114.71z"/>
		</g>
		<g>
			<path class="st40" d="M133.15,135.56c-1.09-1.11-1.38-2.58-0.65-3.29c0.73-0.7,2.2-0.37,3.29,0.74c1.08,1.11,1.37,2.59,0.64,3.29
				C135.7,137.01,134.23,136.68,133.15,135.56z"/>
			<path class="st41" d="M134.43,135.75c-0.3-0.31-0.35-0.76-0.11-0.99c0.24-0.23,0.69-0.17,1,0.14c0.3,0.32,0.35,0.75,0.11,1
				C135.17,136.12,134.73,136.06,134.43,135.75z"/>
		</g>
		<g>
			<path class="st40" d="M129.58,118.91c1.18,1.01,1.61,2.45,0.94,3.22c-0.66,0.76-2.16,0.56-3.33-0.45
				c-1.18-1.01-1.61-2.46-0.95-3.21C126.9,117.7,128.4,117.91,129.58,118.91z"/>
			<path class="st41" d="M128.28,118.85c0.34,0.28,0.42,0.72,0.21,0.98c-0.23,0.25-0.68,0.23-1-0.06c-0.33-0.28-0.42-0.72-0.2-0.97
				C127.51,118.54,127.96,118.57,128.28,118.85z"/>
		</g>
		<g>
			<path class="st40" d="M122.87,136.24c-0.89-1.27-0.93-2.78-0.09-3.35c0.84-0.57,2.23,0,3.11,1.28c0.89,1.28,0.93,2.77,0.09,3.35
				C125.14,138.08,123.75,137.51,122.87,136.24z"/>
			<path class="st41" d="M124.1,136.62c-0.25-0.35-0.22-0.8,0.06-0.99c0.27-0.19,0.7-0.05,0.95,0.3c0.24,0.36,0.22,0.8-0.06,0.99
				C124.77,137.12,124.34,136.98,124.1,136.62z"/>
		</g>
		<g>
			<path class="st40" d="M112.93,130.93c-0.62-1.43-0.36-2.91,0.57-3.31c0.93-0.4,2.19,0.43,2.8,1.86c0.62,1.43,0.37,2.91-0.57,3.3
				C114.8,133.18,113.55,132.35,112.93,130.93z"/>
			<path class="st41" d="M114.06,131.54c-0.18-0.4-0.06-0.84,0.25-0.96c0.31-0.13,0.7,0.08,0.88,0.48c0.17,0.4,0.06,0.83-0.25,0.96
				C114.62,132.16,114.23,131.95,114.06,131.54z"/>
		</g>
		<g>
			<path class="st40" d="M131.3,141.01c0.86,1.29,0.87,2.8,0.03,3.35c-0.85,0.56-2.24-0.04-3.09-1.33c-0.86-1.3-0.87-2.79-0.02-3.36
				C129.06,139.12,130.44,139.72,131.3,141.01z"/>
			<path class="st41" d="M130.08,140.6c0.25,0.36,0.22,0.8-0.07,0.99c-0.28,0.19-0.71,0.04-0.95-0.31c-0.24-0.37-0.2-0.82,0.07-1
				C129.41,140.09,129.84,140.24,130.08,140.6z"/>
		</g>
		<g>
			<path class="st40" d="M114.02,142.13c-0.52-1.47-0.17-2.92,0.78-3.26c0.96-0.34,2.16,0.57,2.68,2.03
				c0.53,1.46,0.18,2.92-0.77,3.26C115.75,144.49,114.55,143.59,114.02,142.13z"/>
			<path class="st41" d="M115.12,142.81c-0.15-0.41-0.01-0.84,0.3-0.94c0.32-0.11,0.71,0.13,0.85,0.53
				c0.15,0.41,0.01,0.83-0.31,0.95C115.64,143.46,115.26,143.23,115.12,142.81z"/>
		</g>
		<g>
			<path class="st40" d="M121.06,125.67c0.63,1.42,0.38,2.91-0.54,3.31c-0.93,0.41-2.19-0.41-2.82-1.83
				c-0.63-1.42-0.39-2.9,0.54-3.31C119.17,123.44,120.43,124.25,121.06,125.67z"/>
			<path class="st41" d="M119.92,125.07c0.17,0.4,0.07,0.83-0.24,0.97c-0.31,0.13-0.71-0.08-0.89-0.48
				c-0.18-0.4-0.07-0.83,0.24-0.97C119.35,124.45,119.74,124.66,119.92,125.07z"/>
		</g>
		<g>
			<path class="st40" d="M106.09,135.04c-0.02-1.55,0.77-2.82,1.79-2.84c1.01-0.02,1.85,1.22,1.88,2.78
				c0.03,1.55-0.77,2.82-1.78,2.83C106.96,137.83,106.12,136.6,106.09,135.04z"/>
			<path class="st41" d="M106.9,136.04c-0.01-0.43,0.25-0.79,0.59-0.8c0.35-0.01,0.63,0.34,0.63,0.78c0.01,0.43-0.26,0.79-0.6,0.8
				C107.19,136.83,106.91,136.48,106.9,136.04z"/>
		</g>
		<g>
			<path class="st40" d="M110.59,140.56c0.33,1.52-0.2,2.93-1.2,3.13c-0.99,0.21-2.06-0.84-2.39-2.36c-0.33-1.51,0.21-2.92,1.2-3.12
				C109.2,137.99,110.27,139.05,110.59,140.56z"/>
			<path class="st41" d="M109.61,139.74c0.09,0.42-0.1,0.83-0.43,0.9c-0.33,0.07-0.68-0.22-0.77-0.64c-0.09-0.43,0.1-0.83,0.43-0.9
				C109.16,139.03,109.51,139.31,109.61,139.74z"/>
		</g>
		<g>
			<path class="st40" d="M107.9,145.57c-0.01,1.55-0.83,2.81-1.85,2.8c-1.01,0-1.83-1.26-1.82-2.81c0-1.55,0.83-2.8,1.84-2.8
				C107.08,142.76,107.91,144.02,107.9,145.57z"/>
			<path class="st41" d="M107.11,144.55c0,0.43-0.28,0.79-0.61,0.79c-0.34,0-0.61-0.35-0.61-0.79c0-0.43,0.28-0.79,0.62-0.79
				C106.83,143.76,107.11,144.12,107.11,144.55z"/>
		</g>
		<g>
			<path class="st40" d="M92.4,134.37c0.27-1.53,1.29-2.63,2.29-2.46c0.99,0.17,1.6,1.55,1.34,3.07c-0.27,1.53-1.28,2.63-2.28,2.46
				C92.74,137.28,92.14,135.91,92.4,134.37z"/>
			<path class="st41" d="M93.02,135.51c0.07-0.43,0.4-0.74,0.73-0.68c0.33,0.06,0.55,0.45,0.48,0.88c-0.08,0.43-0.41,0.73-0.74,0.67
				C93.16,136.33,92.94,135.93,93.02,135.51z"/>
		</g>
		<g>
			<path class="st40" d="M105.95,131.18c-0.16,1.54-1.1,2.71-2.11,2.61c-1.01-0.1-1.71-1.43-1.55-2.97c0.15-1.54,1.1-2.72,2.11-2.61
				C105.41,128.31,106.1,129.64,105.95,131.18z"/>
			<path class="st41" d="M105.25,130.09c-0.04,0.43-0.35,0.76-0.69,0.72c-0.33-0.03-0.57-0.41-0.52-0.85
				c0.04-0.43,0.35-0.76,0.68-0.72C105.06,129.28,105.3,129.66,105.25,130.09z"/>
		</g>
		<g>
			<path class="st40" d="M100.13,135.4c-0.03,1.55-0.88,2.79-1.89,2.77c-1.02-0.02-1.81-1.3-1.78-2.84
				c0.02-1.55,0.88-2.79,1.89-2.77C99.37,132.58,100.16,133.85,100.13,135.4z"/>
			<path class="st41" d="M99.36,134.36c-0.01,0.44-0.29,0.79-0.63,0.78c-0.33,0-0.6-0.37-0.6-0.8c0.02-0.44,0.3-0.79,0.63-0.78
				C99.11,133.57,99.37,133.93,99.36,134.36z"/>
		</g>
		<g>
			<path class="st40" d="M89.27,144.76c-0.55,1.46-1.75,2.35-2.71,2c-0.95-0.36-1.28-1.82-0.74-3.27c0.55-1.45,1.76-2.35,2.71-2
				C89.48,141.85,89.82,143.3,89.27,144.76z"/>
			<path class="st41" d="M88.88,143.54c-0.15,0.41-0.53,0.65-0.85,0.52c-0.32-0.11-0.45-0.54-0.29-0.95
				c0.15-0.41,0.53-0.64,0.85-0.53C88.9,142.7,89.03,143.13,88.88,143.54z"/>
		</g>
		<g>
			<path class="st40" d="M95.91,129.22c-0.54,1.45-1.75,2.35-2.7,2c-0.95-0.34-1.29-1.81-0.75-3.26c0.54-1.46,1.75-2.35,2.71-2
				C96.12,126.3,96.45,127.76,95.91,129.22z"/>
			<path class="st41" d="M95.52,127.99c-0.15,0.41-0.53,0.65-0.85,0.53c-0.32-0.12-0.45-0.55-0.3-0.95
				c0.15-0.41,0.53-0.65,0.85-0.53C95.54,127.15,95.68,127.58,95.52,127.99z"/>
		</g>
		<g>
			<path class="st40" d="M90.21,138.08c-0.64,1.42-1.91,2.22-2.84,1.81c-0.92-0.42-1.16-1.9-0.52-3.31
				c0.64-1.42,1.91-2.23,2.84-1.82C90.62,135.18,90.85,136.67,90.21,138.08z"/>
			<path class="st41" d="M89.91,136.83c-0.18,0.39-0.58,0.61-0.89,0.48c-0.31-0.15-0.41-0.58-0.24-0.98
				c0.18-0.39,0.57-0.61,0.88-0.47C89.98,136,90.08,136.44,89.91,136.83z"/>
		</g>
		<g>
			<path class="st40" d="M81.75,119.56c0.85-1.3,2.22-1.91,3.08-1.36c0.84,0.55,0.85,2.05,0,3.35c-0.85,1.3-2.23,1.91-3.08,1.36
				C80.91,122.37,80.91,120.87,81.75,119.56z"/>
			<path class="st41" d="M81.86,120.85c0.24-0.37,0.67-0.51,0.95-0.33c0.28,0.18,0.32,0.63,0.08,0.99
				c-0.24,0.37-0.66,0.52-0.95,0.33C81.66,121.65,81.63,121.21,81.86,120.85z"/>
		</g>
		<g>
			<path class="st40" d="M85.9,132.51c-0.22,1.54-1.22,2.66-2.23,2.51c-1-0.15-1.63-1.5-1.4-3.04c0.23-1.53,1.22-2.66,2.23-2.51
				C85.5,129.61,86.13,130.98,85.9,132.51z"/>
			<path class="st41" d="M85.27,131.39c-0.06,0.43-0.39,0.74-0.72,0.69c-0.33-0.05-0.55-0.43-0.49-0.87
				c0.07-0.43,0.39-0.74,0.72-0.69C85.11,130.57,85.33,130.97,85.27,131.39z"/>
		</g>
		<g>
			<path class="st40" d="M75.82,121.55c0.98-1.2,2.42-1.65,3.2-1.02c0.79,0.64,0.63,2.13-0.36,3.34c-0.98,1.2-2.42,1.66-3.21,1.02
				C74.67,124.25,74.84,122.76,75.82,121.55z"/>
			<path class="st41" d="M75.79,122.84c0.27-0.34,0.71-0.44,0.98-0.23c0.26,0.21,0.25,0.66-0.03,0.99
				c-0.27,0.34-0.71,0.43-0.98,0.23C75.5,123.62,75.51,123.18,75.79,122.84z"/>
		</g>
		<g>
			<path class="st40" d="M73.7,114.44c1.16-1.04,2.66-1.26,3.33-0.51c0.68,0.75,0.28,2.2-0.88,3.23c-1.17,1.04-2.66,1.26-3.33,0.51
				C72.14,116.91,72.54,115.46,73.7,114.44z"/>
			<path class="st41" d="M73.47,115.7c0.32-0.29,0.77-0.32,0.99-0.07c0.23,0.26,0.15,0.7-0.18,0.98c-0.33,0.29-0.78,0.33-1,0.08
				C73.06,116.43,73.14,115.99,73.47,115.7z"/>
		</g>
		<g>
			<path class="st40" d="M84.23,120.48c-0.36,1.51-1.46,2.55-2.45,2.31c-0.98-0.24-1.49-1.65-1.13-3.16
				c0.37-1.51,1.45-2.54,2.45-2.3C84.09,117.55,84.59,118.97,84.23,120.48z"/>
			<path class="st41" d="M83.7,119.31c-0.1,0.43-0.45,0.7-0.78,0.63c-0.33-0.08-0.51-0.48-0.41-0.91c0.1-0.43,0.45-0.7,0.78-0.63
				C83.61,118.48,83.8,118.89,83.7,119.31z"/>
		</g>
		<g>
			<path class="st40" d="M72.63,103.65c1.55-0.13,2.88,0.59,2.96,1.6c0.08,1.01-1.11,1.93-2.67,2.05c-1.55,0.12-2.87-0.6-2.96-1.6
				C69.89,104.7,71.08,103.77,72.63,103.65z"/>
			<path class="st41" d="M71.68,104.52c0.44-0.04,0.81,0.21,0.84,0.55c0.02,0.34-0.3,0.64-0.74,0.67c-0.43,0.03-0.81-0.21-0.84-0.55
				C70.92,104.85,71.25,104.55,71.68,104.52z"/>
		</g>
		<g>
			<path class="st40" d="M62.28,118.85c-1.36,0.76-2.86,0.66-3.36-0.22c-0.5-0.88,0.2-2.21,1.56-2.97c1.36-0.76,2.87-0.66,3.36,0.23
				C64.34,116.76,63.64,118.09,62.28,118.85z"/>
			<path class="st41" d="M62.78,117.67c-0.38,0.21-0.82,0.15-0.99-0.14c-0.16-0.29,0.01-0.71,0.39-0.92
				c0.39-0.22,0.82-0.15,0.99,0.14C63.34,117.04,63.17,117.45,62.78,117.67z"/>
		</g>
		<g>
			<path class="st40" d="M65.45,100.55c1.49-0.45,2.94-0.03,3.23,0.95c0.29,0.96-0.68,2.11-2.17,2.55c-1.5,0.45-2.94,0.03-3.24-0.94
				C62.99,102.15,63.96,100.99,65.45,100.55z"/>
			<path class="st41" d="M64.71,101.6c0.42-0.13,0.84,0.02,0.93,0.35c0.1,0.33-0.16,0.69-0.58,0.81c-0.42,0.13-0.84-0.03-0.94-0.36
				C64.03,102.09,64.29,101.72,64.71,101.6z"/>
		</g>
		<g>
			<path class="st40" d="M56.29,100.14c1.54-0.27,2.92,0.32,3.09,1.32c0.18,0.99-0.93,2.02-2.46,2.29
				c-1.54,0.26-2.92-0.33-3.09-1.33C53.65,101.42,54.75,100.4,56.29,100.14z"/>
			<path class="st41" d="M55.42,101.1c0.43-0.08,0.83,0.12,0.89,0.46c0.06,0.33-0.24,0.66-0.67,0.74c-0.44,0.08-0.83-0.13-0.89-0.47
				C54.69,101.5,54.99,101.16,55.42,101.1z"/>
		</g>
		<g>
			<path class="st40" d="M58.94,111.91c-1.5,0.43-2.94,0-3.22-0.97c-0.28-0.97,0.7-2.11,2.2-2.54c1.49-0.42,2.94,0.01,3.22,0.98
				C61.42,110.35,60.44,111.48,58.94,111.91z"/>
			<path class="st41" d="M59.69,110.88c-0.41,0.12-0.83-0.05-0.93-0.37c-0.09-0.33,0.17-0.69,0.59-0.81
				c0.42-0.13,0.84,0.04,0.94,0.37C60.38,110.39,60.12,110.76,59.69,110.88z"/>
		</g>
		<g>
			<path class="st40" d="M64.14,93.09c1.54-0.2,2.91,0.44,3.04,1.44c0.14,1-1,1.98-2.55,2.19c-1.55,0.2-2.91-0.44-3.04-1.44
				C61.45,94.27,62.6,93.3,64.14,93.09z"/>
			<path class="st41" d="M63.23,94.01c0.44-0.06,0.82,0.16,0.87,0.5c0.04,0.33-0.27,0.65-0.7,0.71c-0.43,0.06-0.82-0.16-0.87-0.5
				C62.48,94.38,62.8,94.07,63.23,94.01z"/>
		</g>
		<g>
			<path class="st40" d="M69.34,93.72c1.23,0.94,1.73,2.36,1.11,3.16c-0.62,0.8-2.12,0.68-3.36-0.27c-1.23-0.94-1.73-2.36-1.11-3.16
				C66.6,92.65,68.11,92.77,69.34,93.72z"/>
			<path class="st41" d="M68.05,93.73c0.35,0.27,0.46,0.7,0.25,0.96c-0.21,0.27-0.65,0.27-1,0c-0.35-0.26-0.46-0.69-0.25-0.96
				C67.25,93.46,67.7,93.46,68.05,93.73z"/>
		</g>
		<g>
			<path class="st40" d="M51.7,91.96c0.35,1.51-0.17,2.92-1.15,3.14c-0.99,0.23-2.08-0.81-2.43-2.32c-0.35-1.51,0.17-2.92,1.16-3.15
				C50.26,89.41,51.35,90.44,51.7,91.96z"/>
			<path class="st41" d="M50.7,91.14c0.1,0.43-0.09,0.83-0.42,0.91c-0.33,0.08-0.67-0.2-0.77-0.63c-0.1-0.43,0.09-0.83,0.42-0.91
				C50.25,90.44,50.6,90.72,50.7,91.14z"/>
		</g>
		<g>
			<path class="st40" d="M150.72,110.51c1.52,0.34,2.56,1.42,2.35,2.4c-0.23,0.99-1.64,1.51-3.16,1.16
				c-1.52-0.34-2.57-1.41-2.35-2.4C147.79,110.69,149.21,110.16,150.72,110.51z"/>
			<path class="st41" d="M149.55,111.06c0.43,0.09,0.72,0.44,0.64,0.77c-0.08,0.33-0.48,0.52-0.91,0.42
				c-0.42-0.09-0.71-0.44-0.64-0.76C148.72,111.14,149.13,110.95,149.55,111.06z"/>
		</g>
	</g>
</g>
</svg>
